<svg width="41" height="40" viewBox="0 0 41 40" fill="none" xmlns="http://www.w3.org/2000/svg">
<rect x="0.899414" width="40" height="40" rx="9" fill="#E54335"/>
<path d="M27.5778 19.9634C27.5778 18.6457 27.2218 17.4385 26.5098 16.3417L17.2531 25.5861C18.3743 26.3146 19.5898 26.6788 20.8993 26.6788C21.8078 26.6788 22.6733 26.5008 23.4958 26.1447C24.3184 25.7887 25.0284 25.312 25.6258 24.7145C26.2233 24.117 26.698 23.4029 27.0499 22.5722C27.4019 21.7415 27.5778 20.8719 27.5778 19.9634ZM15.3133 23.6341L24.5823 14.3774C23.4774 13.6326 22.2497 13.2603 20.8993 13.2603C19.688 13.2603 18.5708 13.559 17.5477 14.1565C16.5246 14.7539 15.7144 15.5683 15.1169 16.5995C14.5194 17.6308 14.2207 18.7521 14.2207 19.9634C14.2207 21.2893 14.5849 22.5129 15.3133 23.6341ZM30.3278 19.9634C30.3278 21.2484 30.0782 22.476 29.579 23.6464C29.0797 24.8168 28.4106 25.8235 27.5717 26.6665C26.7328 27.5095 25.7302 28.1806 24.5639 28.6799C23.3976 29.1792 22.1761 29.4288 20.8993 29.4288C19.6225 29.4288 18.4009 29.1792 17.2347 28.6799C16.0684 28.1806 15.0658 27.5095 14.2268 26.6665C13.3879 25.8235 12.7188 24.8168 12.2196 23.6464C11.7203 22.476 11.4707 21.2484 11.4707 19.9634C11.4707 18.6784 11.7203 17.4528 12.2196 16.2865C12.7188 15.1202 13.3879 14.1155 14.2268 13.2725C15.0658 12.4295 16.0684 11.7584 17.2347 11.2591C18.4009 10.7599 19.6225 10.5103 20.8993 10.5103C22.1761 10.5103 23.3976 10.7599 24.5639 11.2591C25.7302 11.7584 26.7328 12.4295 27.5717 13.2725C28.4106 14.1155 29.0797 15.1202 29.579 16.2865C30.0782 17.4528 30.3278 18.6784 30.3278 19.9634Z" fill="white"/>
</svg>
