<svg width="64" height="64" viewBox="0 0 64 64" fill="none" xmlns="http://www.w3.org/2000/svg">
<rect width="64" height="64" rx="10" fill="#F1FAFF"/>
<g clip-path="url(#clip0_72_521)">
<path d="M25.75 17C25.9158 17 26.0747 16.9341 26.1919 16.8169C26.3091 16.6997 26.375 16.5408 26.375 16.375V15.125C26.375 14.9592 26.3092 14.8003 26.1919 14.6831C26.0747 14.5658 25.9158 14.5 25.75 14.5C25.5842 14.5 25.4253 14.5658 25.3081 14.6831C25.1908 14.8003 25.125 14.9592 25.125 15.125V16.375C25.125 16.5408 25.1909 16.6997 25.3081 16.8169C25.4253 16.9341 25.5842 17 25.75 17ZM28.25 17C28.4158 17 28.5747 16.9341 28.6919 16.8169C28.8091 16.6997 28.875 16.5408 28.875 16.375V15.125C28.875 14.9592 28.8092 14.8003 28.6919 14.6831C28.5747 14.5658 28.4158 14.5 28.25 14.5C28.0842 14.5 27.9253 14.5658 27.8081 14.6831C27.6908 14.8003 27.625 14.9592 27.625 15.125V16.375C27.625 16.5408 27.6909 16.6997 27.8081 16.8169C27.9253 16.9341 28.0842 17 28.25 17ZM30.75 17C30.9158 17 31.0747 16.9341 31.1919 16.8169C31.3091 16.6997 31.375 16.5408 31.375 16.375V15.125C31.375 14.9592 31.3092 14.8003 31.1919 14.6831C31.0747 14.5658 30.9158 14.5 30.75 14.5C30.5842 14.5 30.4253 14.5658 30.3081 14.6831C30.1908 14.8003 30.125 14.9592 30.125 15.125V16.375C30.125 16.5408 30.1909 16.6997 30.3081 16.8169C30.4253 16.9341 30.5842 17 30.75 17ZM33.25 17C33.4158 17 33.5747 16.9341 33.6919 16.8169C33.8091 16.6997 33.875 16.5408 33.875 16.375V15.125C33.875 14.9592 33.8092 14.8003 33.6919 14.6831C33.5747 14.5658 33.4158 14.5 33.25 14.5C33.0842 14.5 32.9253 14.5658 32.8081 14.6831C32.6908 14.8003 32.625 14.9592 32.625 15.125V16.375C32.625 16.5408 32.6909 16.6997 32.8081 16.8169C32.9253 16.9341 33.0842 17 33.25 17ZM35.75 17C35.9158 17 36.0747 16.9341 36.1919 16.8169C36.3091 16.6997 36.375 16.5408 36.375 16.375V15.125C36.375 14.9592 36.3092 14.8003 36.1919 14.6831C36.0747 14.5658 35.9158 14.5 35.75 14.5C35.5842 14.5 35.4253 14.5658 35.3081 14.6831C35.1908 14.8003 35.125 14.9592 35.125 15.125V16.375C35.125 16.5408 35.1909 16.6997 35.3081 16.8169C35.4253 16.9341 35.5842 17 35.75 17ZM38.25 17C38.4158 17 38.5747 16.9341 38.6919 16.8169C38.8091 16.6997 38.875 16.5408 38.875 16.375V15.125C38.875 14.9592 38.8092 14.8003 38.6919 14.6831C38.5747 14.5658 38.4158 14.5 38.25 14.5C38.0842 14.5 37.9253 14.5658 37.8081 14.6831C37.6908 14.8003 37.625 14.9592 37.625 15.125V16.375C37.625 16.5408 37.6909 16.6997 37.8081 16.8169C37.9253 16.9341 38.0842 17 38.25 17ZM16.0625 28.875C16.0625 28.7092 15.9967 28.5503 15.8794 28.4331C15.7622 28.3158 15.6033 28.25 15.4375 28.25C15.2717 28.25 15.1128 28.3158 14.9956 28.4331C14.8783 28.5503 14.8125 28.7092 14.8125 28.875V30.125C14.8125 30.2908 14.8783 30.4497 14.9956 30.5669C15.1128 30.6842 15.2717 30.75 15.4375 30.75C15.6033 30.75 15.7622 30.6842 15.8794 30.5669C15.9967 30.4497 16.0625 30.2908 16.0625 30.125V28.875ZM17.9375 30.75C18.1033 30.75 18.2622 30.6841 18.3794 30.5669C18.4966 30.4497 18.5625 30.2908 18.5625 30.125V28.875C18.5625 28.7092 18.4967 28.5503 18.3794 28.4331C18.2622 28.3158 18.1033 28.25 17.9375 28.25C17.7717 28.25 17.6128 28.3158 17.4956 28.4331C17.3783 28.5503 17.3125 28.7092 17.3125 28.875V30.125C17.3125 30.2908 17.3784 30.4497 17.4956 30.5669C17.6128 30.6841 17.7717 30.75 17.9375 30.75ZM20.4375 30.75C20.6033 30.75 20.7622 30.6841 20.8794 30.5669C20.9966 30.4497 21.0625 30.2908 21.0625 30.125V28.875C21.0625 28.7092 20.9967 28.5503 20.8794 28.4331C20.7622 28.3158 20.6033 28.25 20.4375 28.25C20.2717 28.25 20.1128 28.3158 19.9956 28.4331C19.8783 28.5503 19.8125 28.7092 19.8125 28.875V30.125C19.8125 30.2908 19.8784 30.4497 19.9956 30.5669C20.1128 30.6841 20.2717 30.75 20.4375 30.75ZM16.0625 32.625C16.0625 32.4592 15.9967 32.3003 15.8794 32.1831C15.7622 32.0658 15.6033 32 15.4375 32C15.2717 32 15.1128 32.0658 14.9956 32.1831C14.8783 32.3003 14.8125 32.4592 14.8125 32.625V33.875C14.8125 34.0408 14.8783 34.1997 14.9956 34.3169C15.1128 34.4342 15.2717 34.5 15.4375 34.5C15.6033 34.5 15.7622 34.4342 15.8794 34.3169C15.9967 34.1997 16.0625 34.0408 16.0625 33.875V32.625ZM17.3125 33.875C17.3125 34.0408 17.3783 34.1997 17.4956 34.3169C17.6128 34.4342 17.7717 34.5 17.9375 34.5C18.1033 34.5 18.2622 34.4342 18.3794 34.3169C18.4967 34.1997 18.5625 34.0408 18.5625 33.875V32.625C18.5625 32.4592 18.4967 32.3003 18.3794 32.1831C18.2622 32.0658 18.1033 32 17.9375 32C17.7717 32 17.6128 32.0658 17.4956 32.1831C17.3783 32.3003 17.3125 32.4592 17.3125 32.625V33.875ZM19.8125 33.875C19.8125 34.0408 19.8783 34.1997 19.9956 34.3169C20.1128 34.4342 20.2717 34.5 20.4375 34.5C20.6033 34.5 20.7622 34.4342 20.8794 34.3169C20.9967 34.1997 21.0625 34.0408 21.0625 33.875V32.625C21.0625 32.4592 20.9967 32.3003 20.8794 32.1831C20.7622 32.0658 20.6033 32 20.4375 32C20.2717 32 20.1128 32.0658 19.9956 32.1831C19.8783 32.3003 19.8125 32.4592 19.8125 32.625V33.875ZM16.0625 36.375C16.0625 36.2092 15.9967 36.0503 15.8794 35.9331C15.7622 35.8158 15.6033 35.75 15.4375 35.75C15.2717 35.75 15.1128 35.8158 14.9956 35.9331C14.8783 36.0503 14.8125 36.2092 14.8125 36.375V37.625C14.8125 37.7908 14.8783 37.9497 14.9956 38.0669C15.1128 38.1842 15.2717 38.25 15.4375 38.25C15.6033 38.25 15.7622 38.1842 15.8794 38.0669C15.9967 37.9497 16.0625 37.7908 16.0625 37.625V36.375ZM17.3125 37.625C17.3125 37.7908 17.3783 37.9497 17.4956 38.0669C17.6128 38.1842 17.7717 38.25 17.9375 38.25C18.1033 38.25 18.2622 38.1842 18.3794 38.0669C18.4967 37.9497 18.5625 37.7908 18.5625 37.625V36.375C18.5625 36.2092 18.4967 36.0503 18.3794 35.9331C18.2622 35.8158 18.1033 35.75 17.9375 35.75C17.7717 35.75 17.6128 35.8158 17.4956 35.9331C17.3783 36.0503 17.3125 36.2092 17.3125 36.375V37.625ZM19.8125 37.625C19.8125 37.7908 19.8783 37.9497 19.9956 38.0669C20.1128 38.1842 20.2717 38.25 20.4375 38.25C20.6033 38.25 20.7622 38.1842 20.8794 38.0669C20.9967 37.9497 21.0625 37.7908 21.0625 37.625V36.375C21.0625 36.2092 20.9967 36.0503 20.8794 35.9331C20.7622 35.8158 20.6033 35.75 20.4375 35.75C20.2717 35.75 20.1128 35.8158 19.9956 35.9331C19.8783 36.0503 19.8125 36.2092 19.8125 36.375V37.625ZM16.0625 40.125C16.0625 39.9592 15.9967 39.8003 15.8794 39.6831C15.7622 39.5658 15.6033 39.5 15.4375 39.5C15.2717 39.5 15.1128 39.5658 14.9956 39.6831C14.8783 39.8003 14.8125 39.9592 14.8125 40.125V41.375C14.8125 41.5408 14.8783 41.6997 14.9956 41.8169C15.1128 41.9342 15.2717 42 15.4375 42C15.6033 42 15.7622 41.9342 15.8794 41.8169C15.9967 41.6997 16.0625 41.5408 16.0625 41.375V40.125ZM16.0625 43.875C16.0625 43.7092 15.9967 43.5503 15.8794 43.4331C15.7622 43.3158 15.6033 43.25 15.4375 43.25C15.2717 43.25 15.1128 43.3158 14.9956 43.4331C14.8783 43.5503 14.8125 43.7092 14.8125 43.875V45.125C14.8125 45.2908 14.8783 45.4497 14.9956 45.5669C15.1128 45.6842 15.2717 45.75 15.4375 45.75C15.6033 45.75 15.7622 45.6842 15.8794 45.5669C15.9967 45.4497 16.0625 45.2908 16.0625 45.125V43.875ZM15.4375 47C15.2717 47 15.1128 47.0659 14.9956 47.1831C14.8784 47.3003 14.8125 47.4592 14.8125 47.625V48.875C14.8125 49.0408 14.8783 49.1997 14.9956 49.3169C15.1128 49.4342 15.2717 49.5 15.4375 49.5C15.6033 49.5 15.7622 49.4342 15.8794 49.3169C15.9967 49.1997 16.0625 49.0408 16.0625 48.875V47.625C16.0625 47.4592 15.9966 47.3003 15.8794 47.1831C15.7622 47.0659 15.6033 47 15.4375 47ZM43.5625 30.75C43.7283 30.75 43.8872 30.6841 44.0044 30.5669C44.1216 30.4497 44.1875 30.2908 44.1875 30.125V28.875C44.1875 28.7092 44.1217 28.5503 44.0044 28.4331C43.8872 28.3158 43.7283 28.25 43.5625 28.25C43.3967 28.25 43.2378 28.3158 43.1206 28.4331C43.0033 28.5503 42.9375 28.7092 42.9375 28.875V30.125C42.9375 30.2908 43.0034 30.4497 43.1206 30.5669C43.2378 30.6841 43.3967 30.75 43.5625 30.75ZM46.0625 30.75C46.2283 30.75 46.3872 30.6841 46.5044 30.5669C46.6216 30.4497 46.6875 30.2908 46.6875 30.125V28.875C46.6875 28.7092 46.6217 28.5503 46.5044 28.4331C46.3872 28.3158 46.2283 28.25 46.0625 28.25C45.8967 28.25 45.7378 28.3158 45.6206 28.4331C45.5033 28.5503 45.4375 28.7092 45.4375 28.875V30.125C45.4375 30.2908 45.5034 30.4497 45.6206 30.5669C45.7378 30.6841 45.8967 30.75 46.0625 30.75ZM48.5625 30.75C48.7283 30.75 48.8872 30.6841 49.0044 30.5669C49.1216 30.4497 49.1875 30.2908 49.1875 30.125V28.875C49.1875 28.7092 49.1217 28.5503 49.0044 28.4331C48.8872 28.3158 48.7283 28.25 48.5625 28.25C48.3967 28.25 48.2378 28.3158 48.1206 28.4331C48.0033 28.5503 47.9375 28.7092 47.9375 28.875V30.125C47.9375 30.2908 48.0034 30.4497 48.1206 30.5669C48.2378 30.6841 48.3967 30.75 48.5625 30.75ZM42.9375 33.875C42.9375 34.0408 43.0033 34.1997 43.1206 34.3169C43.2378 34.4342 43.3967 34.5 43.5625 34.5C43.7283 34.5 43.8872 34.4342 44.0044 34.3169C44.1217 34.1997 44.1875 34.0408 44.1875 33.875V32.625C44.1875 32.4592 44.1217 32.3003 44.0044 32.1831C43.8872 32.0658 43.7283 32 43.5625 32C43.3967 32 43.2378 32.0658 43.1206 32.1831C43.0033 32.3003 42.9375 32.4592 42.9375 32.625V33.875ZM45.4375 33.875C45.4375 34.0408 45.5033 34.1997 45.6206 34.3169C45.7378 34.4342 45.8967 34.5 46.0625 34.5C46.2283 34.5 46.3872 34.4342 46.5044 34.3169C46.6217 34.1997 46.6875 34.0408 46.6875 33.875V32.625C46.6875 32.4592 46.6217 32.3003 46.5044 32.1831C46.3872 32.0658 46.2283 32 46.0625 32C45.8967 32 45.7378 32.0658 45.6206 32.1831C45.5033 32.3003 45.4375 32.4592 45.4375 32.625V33.875ZM47.9375 33.875C47.9375 34.0408 48.0033 34.1997 48.1206 34.3169C48.2378 34.4342 48.3967 34.5 48.5625 34.5C48.7283 34.5 48.8872 34.4342 49.0044 34.3169C49.1217 34.1997 49.1875 34.0408 49.1875 33.875V32.625C49.1875 32.4592 49.1217 32.3003 49.0044 32.1831C48.8872 32.0658 48.7283 32 48.5625 32C48.3967 32 48.2378 32.0658 48.1206 32.1831C48.0033 32.3003 47.9375 32.4592 47.9375 32.625V33.875ZM42.9375 37.625C42.9375 37.7908 43.0033 37.9497 43.1206 38.0669C43.2378 38.1842 43.3967 38.25 43.5625 38.25C43.7283 38.25 43.8872 38.1842 44.0044 38.0669C44.1217 37.9497 44.1875 37.7908 44.1875 37.625V36.375C44.1875 36.2092 44.1217 36.0503 44.0044 35.9331C43.8872 35.8158 43.7283 35.75 43.5625 35.75C43.3967 35.75 43.2378 35.8158 43.1206 35.9331C43.0033 36.0503 42.9375 36.2092 42.9375 36.375V37.625ZM45.4375 37.625C45.4375 37.7908 45.5033 37.9497 45.6206 38.0669C45.7378 38.1842 45.8967 38.25 46.0625 38.25C46.2283 38.25 46.3872 38.1842 46.5044 38.0669C46.6217 37.9497 46.6875 37.7908 46.6875 37.625V36.375C46.6875 36.2092 46.6217 36.0503 46.5044 35.9331C46.3872 35.8158 46.2283 35.75 46.0625 35.75C45.8967 35.75 45.7378 35.8158 45.6206 35.9331C45.5033 36.0503 45.4375 36.2092 45.4375 36.375V37.625ZM47.9375 37.625C47.9375 37.7908 48.0033 37.9497 48.1206 38.0669C48.2378 38.1842 48.3967 38.25 48.5625 38.25C48.7283 38.25 48.8872 38.1842 49.0044 38.0669C49.1217 37.9497 49.1875 37.7908 49.1875 37.625V36.375C49.1875 36.2092 49.1217 36.0503 49.0044 35.9331C48.8872 35.8158 48.7283 35.75 48.5625 35.75C48.3967 35.75 48.2378 35.8158 48.1206 35.9331C48.0033 36.0503 47.9375 36.2092 47.9375 36.375V37.625ZM47.9375 41.375C47.9375 41.5408 48.0033 41.6997 48.1206 41.8169C48.2378 41.9342 48.3967 42 48.5625 42C48.7283 42 48.8872 41.9342 49.0044 41.8169C49.1217 41.6997 49.1875 41.5408 49.1875 41.375V40.125C49.1875 39.9592 49.1217 39.8003 49.0044 39.6831C48.8872 39.5658 48.7283 39.5 48.5625 39.5C48.3967 39.5 48.2378 39.5658 48.1206 39.6831C48.0033 39.8003 47.9375 39.9592 47.9375 40.125V41.375ZM47.9375 45.125C47.9375 45.2908 48.0033 45.4497 48.1206 45.5669C48.2378 45.6842 48.3967 45.75 48.5625 45.75C48.7283 45.75 48.8872 45.6842 49.0044 45.5669C49.1217 45.4497 49.1875 45.2908 49.1875 45.125V43.875C49.1875 43.7092 49.1217 43.5503 49.0044 43.4331C48.8872 43.3158 48.7283 43.25 48.5625 43.25C48.3967 43.25 48.2378 43.3158 48.1206 43.4331C48.0033 43.5503 47.9375 43.7092 47.9375 43.875V45.125ZM47.9375 48.875C47.9375 49.0408 48.0033 49.1997 48.1206 49.3169C48.2378 49.4342 48.3967 49.5 48.5625 49.5C48.7283 49.5 48.8872 49.4342 49.0044 49.3169C49.1217 49.1997 49.1875 49.0408 49.1875 48.875V47.625C49.1875 47.4592 49.1217 47.3003 49.0044 47.1831C48.8872 47.0658 48.7283 47 48.5625 47C48.3967 47 48.2378 47.0658 48.1206 47.1831C48.0033 47.3003 47.9375 47.4592 47.9375 47.625V48.875ZM25.125 20.125C25.125 20.2908 25.1908 20.4497 25.3081 20.5669C25.4253 20.6842 25.5842 20.75 25.75 20.75C25.9158 20.75 26.0747 20.6842 26.1919 20.5669C26.3092 20.4497 26.375 20.2908 26.375 20.125V18.875C26.375 18.7092 26.3092 18.5503 26.1919 18.4331C26.0747 18.3158 25.9158 18.25 25.75 18.25C25.5842 18.25 25.4253 18.3158 25.3081 18.4331C25.1908 18.5503 25.125 18.7092 25.125 18.875V20.125ZM27.625 20.125C27.625 20.2908 27.6908 20.4497 27.8081 20.5669C27.9253 20.6842 28.0842 20.75 28.25 20.75C28.4158 20.75 28.5747 20.6842 28.6919 20.5669C28.8092 20.4497 28.875 20.2908 28.875 20.125V18.875C28.875 18.7092 28.8092 18.5503 28.6919 18.4331C28.5747 18.3158 28.4158 18.25 28.25 18.25C28.0842 18.25 27.9253 18.3158 27.8081 18.4331C27.6908 18.5503 27.625 18.7092 27.625 18.875V20.125ZM30.125 20.125C30.125 20.2908 30.1908 20.4497 30.3081 20.5669C30.4253 20.6842 30.5842 20.75 30.75 20.75C30.9158 20.75 31.0747 20.6842 31.1919 20.5669C31.3092 20.4497 31.375 20.2908 31.375 20.125V18.875C31.375 18.7092 31.3092 18.5503 31.1919 18.4331C31.0747 18.3158 30.9158 18.25 30.75 18.25C30.5842 18.25 30.4253 18.3158 30.3081 18.4331C30.1908 18.5503 30.125 18.7092 30.125 18.875V20.125ZM32.625 20.125C32.625 20.2908 32.6908 20.4497 32.8081 20.5669C32.9253 20.6842 33.0842 20.75 33.25 20.75C33.4158 20.75 33.5747 20.6842 33.6919 20.5669C33.8092 20.4497 33.875 20.2908 33.875 20.125V18.875C33.875 18.7092 33.8092 18.5503 33.6919 18.4331C33.5747 18.3158 33.4158 18.25 33.25 18.25C33.0842 18.25 32.9253 18.3158 32.8081 18.4331C32.6908 18.5503 32.625 18.7092 32.625 18.875V20.125ZM35.125 20.125C35.125 20.2908 35.1908 20.4497 35.3081 20.5669C35.4253 20.6842 35.5842 20.75 35.75 20.75C35.9158 20.75 36.0747 20.6842 36.1919 20.5669C36.3092 20.4497 36.375 20.2908 36.375 20.125V18.875C36.375 18.7092 36.3092 18.5503 36.1919 18.4331C36.0747 18.3158 35.9158 18.25 35.75 18.25C35.5842 18.25 35.4253 18.3158 35.3081 18.4331C35.1908 18.5503 35.125 18.7092 35.125 18.875V20.125ZM37.625 20.125C37.625 20.2908 37.6908 20.4497 37.8081 20.5669C37.9253 20.6842 38.0842 20.75 38.25 20.75C38.4158 20.75 38.5747 20.6842 38.6919 20.5669C38.8092 20.4497 38.875 20.2908 38.875 20.125V18.875C38.875 18.7092 38.8092 18.5503 38.6919 18.4331C38.5747 18.3158 38.4158 18.25 38.25 18.25C38.0842 18.25 37.9253 18.3158 37.8081 18.4331C37.6908 18.5503 37.625 18.7092 37.625 18.875V20.125Z" fill="#007472"/>
<path d="M50.125 25.75H46.375V24.5C46.3745 24.0029 46.1767 23.5263 45.8252 23.1748C45.4737 22.8233 44.9971 22.6255 44.5 22.625H41.375V13.875C41.3745 13.3779 41.1767 12.9013 40.8252 12.5498C40.4737 12.1983 39.9971 12.0005 39.5 12H24.5C24.0029 12.0005 23.5263 12.1983 23.1748 12.5498C22.8233 12.9013 22.6255 13.3779 22.625 13.875V22.625H19.5C19.0029 22.6255 18.5263 22.8233 18.1748 23.1748C17.8233 23.5263 17.6255 24.0029 17.625 24.5V25.75H13.875C13.3779 25.7505 12.9013 25.9483 12.5498 26.2998C12.1983 26.6513 12.0005 27.1279 12 27.625V50.125C12.0005 50.6221 12.1983 51.0987 12.5498 51.4502C12.9013 51.8017 13.3779 51.9995 13.875 52H17.8413C17.582 51.6273 17.413 51.1993 17.3475 50.75H13.875C13.7093 50.7498 13.5505 50.6839 13.4333 50.5667C13.3161 50.4495 13.2502 50.2907 13.25 50.125V27.625C13.2502 27.4593 13.3161 27.3005 13.4333 27.1833C13.5505 27.0661 13.7093 27.0002 13.875 27H21.375V25.75H18.875V24.5C18.8752 24.3343 18.9411 24.1755 19.0583 24.0583C19.1755 23.9411 19.3343 23.8752 19.5 23.875H22.625V38.6858L23.875 38.0406V13.875C23.8752 13.7093 23.9411 13.5505 24.0583 13.4333C24.1755 13.3161 24.3343 13.2502 24.5 13.25H39.5C39.6657 13.2502 39.8245 13.3161 39.9417 13.4333C40.0589 13.5505 40.1248 13.7093 40.125 13.875V37.9552L41.375 38.6254V23.875H44.5C44.6657 23.8752 44.8245 23.9411 44.9417 24.0583C45.0589 24.1755 45.1248 24.3343 45.125 24.5V25.75H42.625V27H50.125C50.2907 27.0002 50.4495 27.0661 50.5667 27.1833C50.6839 27.3005 50.7498 27.4593 50.75 27.625V50.125C50.7498 50.2907 50.6839 50.4495 50.5667 50.5667C50.4495 50.6839 50.2907 50.7498 50.125 50.75H46.6525C46.587 51.1993 46.418 51.6273 46.1587 52H50.125C50.6221 51.9995 51.0987 51.8017 51.4502 51.4502C51.8017 51.0987 51.9995 50.6221 52 50.125V27.625C51.9995 27.1279 51.8017 26.6513 51.4502 26.2998C51.0987 25.9483 50.6221 25.7505 50.125 25.75Z" fill="#007472"/>
<path d="M43.5625 39.5C43.4366 39.4999 43.3137 39.538 43.21 39.6093L44.1875 40.1334V40.125C44.1875 39.9593 44.1216 39.8003 44.0044 39.6831C43.8872 39.5659 43.7283 39.5 43.5625 39.5ZM17.3125 41.375C17.3126 41.5173 17.3613 41.6554 17.4506 41.7663C17.5398 41.8771 17.6642 41.9542 17.8033 41.9847C18.0074 41.6275 18.2633 41.3024 18.5625 41.0199V40.125C18.5625 39.9592 18.4967 39.8003 18.3794 39.6831C18.2622 39.5659 18.1033 39.5 17.9375 39.5C17.7717 39.5 17.6128 39.5659 17.4956 39.6831C17.3783 39.8003 17.3125 39.9592 17.3125 40.125V41.375ZM19.8125 40.1376L20.8077 39.6239C20.715 39.5546 20.6048 39.5125 20.4895 39.5024C20.3742 39.4923 20.2584 39.5145 20.155 39.5665C20.0517 39.6186 19.9649 39.6984 19.9043 39.7971C19.8438 39.8957 19.812 40.0093 19.8125 40.125V40.1376ZM46.6875 41.375V40.125C46.6875 39.9592 46.6217 39.8003 46.5044 39.6831C46.3872 39.5659 46.2283 39.5 46.0625 39.5C45.8967 39.5 45.7378 39.5659 45.6206 39.6831C45.5033 39.8003 45.4375 39.9592 45.4375 40.125V40.9962C45.7453 41.2818 46.0066 41.6138 46.212 41.98C46.3475 41.9468 46.468 41.8692 46.5541 41.7595C46.6403 41.6499 46.6873 41.5145 46.6875 41.375Z" fill="#007472"/>
<path d="M43.8491 41.3713C43.8393 41.3655 37.1435 37.7761 37.1243 37.7681C37.0409 37.7359 36.9682 37.6812 36.9142 37.6101C36.8601 37.5389 36.8269 37.4542 36.8182 37.3653V34.6717C37.3203 33.7935 37.7124 32.8567 37.9855 31.8825C38.1591 31.2655 38.2481 30.6277 38.25 29.9866C38.2485 29.4449 38.1726 28.906 38.0244 28.385C38.2154 28.22 38.3835 28.0301 38.5241 27.8205C38.838 27.2871 38.9428 26.6562 38.8182 26.0499C38.6936 25.4436 38.3485 24.9052 37.8496 24.5388C36.8679 23.7553 35.7855 23.107 34.6314 22.6114C33.7627 22.2218 32.8237 22.0138 31.8718 22C31.0249 22.0047 30.1904 22.2026 29.4316 22.5788C28.6729 22.9549 28.0101 23.4993 27.4937 24.1704C25.8792 24.7077 25.6764 27.4442 25.7693 29.5324C25.7578 29.6825 25.75 29.8336 25.75 29.9866C25.7929 31.9107 26.3604 33.7865 27.3913 35.4117V37.3653C27.3923 37.4504 27.3684 37.5339 27.3224 37.6054C27.2765 37.677 27.2105 37.7336 27.1328 37.7681C27.1166 37.7748 27.1007 37.7822 27.0855 37.7901C27.0855 37.7901 20.1629 41.364 20.1501 41.3719C19.0966 42.0168 18.5625 42.8557 18.5625 43.8652V50.3188C18.5593 50.7608 18.7316 51.186 19.0415 51.5012C19.3514 51.8164 19.7737 51.9958 20.2157 52H43.7844C44.2264 51.9958 44.6487 51.8164 44.9586 51.5012C45.2685 51.186 45.4408 50.7608 45.4375 50.3188V43.8652C45.4375 42.7959 44.9624 42.05 43.8491 41.3713ZM27.8884 25.3565L28.2857 25.2243L28.5232 24.8794C28.9254 24.3762 29.4346 23.969 30.0138 23.6871C30.593 23.4053 31.2277 23.256 31.8718 23.25C32.6545 23.2654 33.4261 23.4391 34.1398 23.7607C35.1923 24.2119 36.179 24.8031 37.0732 25.5184C37.3255 25.692 37.506 25.9515 37.581 26.2485C37.656 26.5455 37.6204 26.8596 37.4807 27.1322C37.0584 27.7725 35.9206 28.2516 34.4371 28.414C34.191 28.4413 33.9436 28.4552 33.696 28.4557C33.2986 28.458 32.9023 28.4153 32.5145 28.3284C31.9085 28.1085 31.3321 27.8144 30.7984 27.4527C30.6212 27.3236 30.4174 27.2354 30.202 27.1945C29.9865 27.1536 29.7646 27.161 29.5524 27.2163C29.3401 27.2715 29.1428 27.3732 28.9746 27.5139C28.8064 27.6547 28.6715 27.831 28.5797 28.0302C28.4355 27.9928 28.2871 27.9739 28.1381 27.9738C27.7277 27.9751 27.3295 28.1141 27.0075 28.3686C27.053 26.8035 27.3392 25.5393 27.8884 25.3565ZM27.1232 31.3116C27.1088 31.1637 27.0918 30.9823 27.0907 30.9588C27.0699 30.7425 27.0945 30.5242 27.163 30.3179C27.2992 29.9366 27.6517 29.2238 28.1379 29.2238C28.2101 29.2244 28.2816 29.2393 28.3479 29.2679C28.3492 29.2684 29.1162 29.5892 29.1162 29.5892C29.1846 29.6099 29.2583 29.6042 29.3228 29.5733C29.3872 29.5424 29.4378 29.4885 29.4646 29.4222L29.7047 28.5815C29.7185 28.534 29.7475 28.4924 29.7872 28.4629C29.8269 28.4335 29.8752 28.4179 29.9246 28.4185C29.9746 28.4185 30.0233 28.4345 30.0637 28.464C30.7279 28.9233 31.4537 29.2866 32.2194 29.5432C32.7038 29.6536 33.1992 29.7082 33.696 29.7057C33.989 29.7053 34.2818 29.6889 34.5731 29.6566C35.3749 29.577 36.1608 29.3803 36.9056 29.0727C36.9672 29.3735 36.9989 29.6796 37 29.9866C36.9985 30.5139 36.925 31.0385 36.7817 31.5459C36.2269 33.5297 35.1629 35.2691 33.8625 36.318C33.3118 36.7632 32.624 37.0042 31.9159 37C31.4017 36.9915 30.8948 36.8763 30.4275 36.6615C29.9602 36.4468 29.5426 36.1373 29.2013 35.7527C28.1258 34.4836 27.4084 32.9505 27.1232 31.3116ZM31.8832 40.5999L28.4441 38.1559C28.573 37.9123 28.6406 37.6409 28.6413 37.3653V36.9603C29.5359 37.7801 30.7025 38.2396 31.9159 38.25C32.9096 38.2547 33.8744 37.9159 34.6471 37.291C34.9769 37.02 35.2849 36.7233 35.5682 36.4039V37.3653C35.5694 37.5098 35.5906 37.6535 35.6312 37.7922L31.8832 40.5999ZM33.5619 46.6066C33.5632 46.6674 33.5442 46.7269 33.5079 46.7757L33.4328 46.8465C33.4328 46.8465 32.6717 47.6906 32.145 48.2814L30.541 46.805L30.5077 46.7763C30.4598 46.7159 30.4361 46.6397 30.4412 46.5627L31.3067 41.724L31.509 41.8679C31.6248 41.958 31.7686 42.0046 31.9152 41.9997C32.0619 41.9947 32.2022 41.9384 32.3116 41.8407L32.5004 41.6993L33.5619 46.6066ZM44.1875 50.3188C44.191 50.4293 44.1505 50.5368 44.075 50.6176C43.9994 50.6984 43.895 50.746 43.7844 50.75H20.2157C20.1051 50.746 20.0007 50.6984 19.9251 50.6176C19.8496 50.5368 19.8091 50.4293 19.8125 50.3188V43.8652C19.8125 43.4856 19.9236 42.9824 20.7839 42.4495L27.4836 38.9914C27.5116 39.0212 27.5424 39.0481 27.5756 39.0718L30.1801 40.9232L29.2141 46.3256C29.168 46.5835 29.1892 46.849 29.2758 47.0963C29.3623 47.3436 29.5113 47.5644 29.7082 47.7373L31.5194 49.4045C31.7109 49.5711 31.9596 49.6571 32.2131 49.6445C32.4667 49.6319 32.7055 49.5216 32.8796 49.3367C33.3315 48.8265 34.1689 47.8969 34.3328 47.7147C34.5218 47.542 34.6624 47.3229 34.7408 47.0792C34.8191 46.8354 34.8325 46.5755 34.7796 46.325L33.6011 40.8748L36.3859 38.7887C36.4591 38.8345 36.5356 38.8748 36.6146 38.9095L43.2128 42.4474C44.0276 42.9476 44.1875 43.3467 44.1875 43.8652V50.3188Z" fill="#007472"/>
</g>
<defs>
<clipPath id="clip0_72_521">
<rect width="40" height="40" fill="white" transform="translate(12 12)"/>
</clipPath>
</defs>
</svg>
