<svg width="64" height="64" viewBox="0 0 64 64" fill="none" xmlns="http://www.w3.org/2000/svg">
<rect width="64" height="64" rx="10" fill="#F1FAFF"/>
<path d="M19.6172 21.2266C17.4326 21.2266 15.6562 19.4502 15.6562 17.2656C15.6562 15.081 17.4326 13.3047 19.6172 13.3047C21.8018 13.3047 23.5781 15.081 23.5781 17.2656C23.5781 19.4502 21.8018 21.2266 19.6172 21.2266ZM19.6172 15.1328C18.4411 15.1328 17.4844 16.0895 17.4844 17.2656C17.4844 18.4417 18.4411 19.3984 19.6172 19.3984C20.7933 19.3984 21.75 18.4417 21.75 17.2656C21.75 16.0895 20.7933 15.1328 19.6172 15.1328ZM44.2969 36.4609C42.618 36.4609 41.25 35.0929 41.25 33.4141C41.25 31.7352 42.618 30.3672 44.2969 30.3672C45.9757 30.3672 47.3438 31.7352 47.3438 33.4141C47.3438 35.0929 45.9757 36.4609 44.2969 36.4609ZM44.2969 32.1953C43.6235 32.1953 43.0781 32.7407 43.0781 33.4141C43.0781 34.0874 43.6235 34.6328 44.2969 34.6328C44.9702 34.6328 45.5156 34.0874 45.5156 33.4141C45.5156 32.7407 44.9702 32.1953 44.2969 32.1953ZM31.5 21.2266C29.3154 21.2266 27.5391 19.4502 27.5391 17.2656C27.5391 15.081 29.3154 13.3047 31.5 13.3047C33.6846 13.3047 35.4609 15.081 35.4609 17.2656C35.4609 19.4502 33.6846 21.2266 31.5 21.2266ZM31.5 15.1328C30.3239 15.1328 29.3672 16.0895 29.3672 17.2656C29.3672 18.4417 30.3239 19.3984 31.5 19.3984C32.6761 19.3984 33.6328 18.4417 33.6328 17.2656C33.6328 16.0895 32.6761 15.1328 31.5 15.1328Z" fill="#007472"/>
<path d="M50.3752 45.7417L49.839 42.7954C49.3576 40.1538 47.2431 38.1581 44.577 37.8351C41.3138 37.439 38.7971 34.8796 38.4589 31.6103L38.1268 28.4324C37.9584 26.7877 37.1849 25.2642 35.9563 24.1579C34.7277 23.0515 33.1318 22.4411 31.4785 22.4453C30.0587 22.4453 28.7028 22.8841 27.5572 23.7159C27.3611 23.8583 27.2294 24.0727 27.1912 24.312C27.1529 24.5513 27.2111 24.7961 27.3531 24.9925C27.4955 25.1886 27.7098 25.3203 27.9492 25.3585C28.1885 25.3968 28.4332 25.3386 28.6297 25.1967C29.4572 24.5943 30.455 24.2709 31.4785 24.2735C33.9739 24.2735 36.0488 26.1442 36.3078 28.6244L36.6399 31.8023C36.9142 34.4287 38.3035 36.6864 40.3358 38.1124V42.8594C40.3358 43.9654 40.7928 44.9648 41.5271 45.6838L41.8623 50.8361C41.8927 51.3206 42.2949 51.6923 42.7733 51.6923C42.7916 51.6923 42.8129 51.6923 42.8312 51.6892C43.3339 51.6588 43.7178 51.2231 43.6874 50.7203L43.4375 46.7198C43.7148 46.7807 44.0042 46.8173 44.2998 46.8173H45.1559L44.9122 50.7203C44.9048 50.8402 44.921 50.9603 44.96 51.0739C44.999 51.1874 45.06 51.2922 45.1396 51.3822C45.2191 51.4721 45.3155 51.5456 45.4234 51.5983C45.5313 51.6509 45.6485 51.6819 45.7684 51.6892C45.7867 51.6892 45.808 51.6923 45.8263 51.6923C46.3046 51.6923 46.7068 51.3206 46.7373 50.8361L47.042 45.9611C47.0572 45.7082 46.9688 45.4614 46.7952 45.2786C46.6215 45.0958 46.3777 44.9922 46.1249 44.9922H44.2967C43.1206 44.9922 42.1639 44.0355 42.1639 42.8594V39.0996C42.8556 39.3707 43.5899 39.5596 44.3577 39.651C46.2254 39.8765 47.7062 41.272 48.0413 43.1214L48.5776 46.0678C48.5991 46.1858 48.6437 46.2985 48.7088 46.3993C48.7739 46.5001 48.8583 46.5871 48.957 46.6553C49.0558 46.7235 49.167 46.7716 49.2844 46.7968C49.4017 46.8219 49.5229 46.8237 49.6409 46.802C50.1376 46.7167 50.4667 46.2384 50.3752 45.7417Z" fill="#007472"/>
<path d="M35.4609 35.8516C34.9552 35.8516 34.5469 36.2599 34.5469 36.7656V41.9453H28.4531C28.4531 41.4396 28.0448 41.0313 27.5391 41.0313C27.0333 41.0313 26.625 41.4396 26.625 41.9453C26.625 42.9538 27.4446 43.7735 28.4531 43.7735H28.5202L29.0655 50.8514C29.0831 51.0809 29.1867 51.2954 29.3556 51.4519C29.5246 51.6084 29.7463 51.6953 29.9766 51.6953C30.0009 51.6953 30.0223 51.6953 30.0466 51.6923C30.2882 51.6736 30.5125 51.5598 30.6702 51.3758C30.8279 51.1918 30.9061 50.9528 30.8876 50.7112L30.3544 43.7735H32.6456L32.1124 50.7112C32.0939 50.9528 32.1721 51.1918 32.3298 51.3758C32.4875 51.5598 32.7118 51.6736 32.9534 51.6923C32.9777 51.6953 33.0021 51.6953 33.0234 51.6953C33.4957 51.6953 33.8979 51.3297 33.9345 50.8514L34.4798 43.7735H34.5469C35.5554 43.7735 36.375 42.9538 36.375 41.9453V36.7656C36.375 36.2599 35.9667 35.8516 35.4609 35.8516ZM26.5488 28.4355C26.3811 26.7902 25.6078 25.2661 24.3792 24.1591C23.1506 23.0521 21.5543 22.4413 19.9005 22.4453C16.2169 22.4453 13.2188 25.4435 13.2188 29.1302V37.9844C13.2188 39.1757 13.9835 40.1934 15.0469 40.5712V48.9531C15.0469 50.4644 16.2778 51.6953 17.7891 51.6953C18.4929 51.6953 19.1327 51.4272 19.6172 50.9915C20.1183 51.4446 20.7698 51.6954 21.4453 51.6953C22.9566 51.6953 24.1875 50.4644 24.1875 48.9531V41.0313C24.1875 40.5255 23.7792 40.1172 23.2734 40.1172C22.7677 40.1172 22.3594 40.5255 22.3594 41.0313V48.9531C22.3594 49.4559 21.948 49.8672 21.4453 49.8672C20.9426 49.8672 20.5312 49.4559 20.5312 48.9531V37.9844C20.5312 37.4786 20.123 37.0703 19.6172 37.0703C19.1114 37.0703 18.7031 37.4786 18.7031 37.9844V48.9531C18.7031 49.4559 18.2918 49.8672 17.7891 49.8672C17.2863 49.8672 16.875 49.4559 16.875 48.9531V39.8125C16.875 39.3067 16.4667 38.8985 15.9609 38.8985C15.4582 38.8985 15.0469 38.4871 15.0469 37.9844V29.1302C15.0469 26.452 17.2254 24.2735 19.9005 24.2735C22.3807 24.2735 24.4465 26.1229 24.7237 28.5817V37.9844C24.7237 38.4902 25.132 38.8985 25.6378 38.8985C26.1436 38.8985 26.5519 38.4902 26.5519 37.9844V28.5299C26.5549 28.4995 26.5519 28.469 26.5488 28.4355Z" fill="#007472"/>
</svg>
