<svg width="64" height="64" viewBox="0 0 64 64" fill="none" xmlns="http://www.w3.org/2000/svg">
<rect width="64" height="64" rx="10" fill="#F1FAFF"/>
<path fill-rule="evenodd" clip-rule="evenodd" d="M28.4875 27.7625C27.0937 28.875 25.1062 29.2437 23.2 29.6062C21.075 30.0125 19.0437 30.4313 17.8312 31.5375C15.4125 33.7313 14.5 36.1375 14.5 40.75C14.5 43.8 16.275 46.0187 18.6937 47.4562C21.025 48.8438 23.9563 49.5 26.375 49.5C33.6313 49.5 39.4 47.2375 43.3625 43.3C47.3312 39.3625 49.5 33.7437 49.5 27C49.5 24.3625 48.6188 21.2625 46.9562 18.8187C45.25 16.3125 42.7188 14.5 39.5 14.5C37.2 14.5 35.4437 16.2375 33.9812 18.6062C32.775 20.5562 31.7437 22.925 30.6562 24.8687C29.975 26.0813 29.2812 27.125 28.4875 27.7562V27.7625ZM47.3125 44.5C46.1063 44.5 45.125 45.4813 45.125 46.6875C45.125 47.8937 46.1063 48.875 47.3125 48.875C48.5187 48.875 49.5 47.8937 49.5 46.6875C49.5 45.4813 48.5187 44.5 47.3125 44.5ZM29.2625 28.7375C30.1625 28.0188 30.975 26.85 31.7437 25.4812C32.825 23.55 33.8438 21.2 35.0437 19.2625C36.25 17.3125 37.6 15.75 39.5 15.75C42.2875 15.75 44.4437 17.3563 45.925 19.525C47.4437 21.7562 48.25 24.5938 48.25 27C48.25 33.375 46.2313 38.6937 42.4813 42.4187C38.725 46.1437 33.25 48.25 26.375 48.25C24.1625 48.25 21.4688 47.6562 19.3375 46.3875C17.2937 45.1688 15.75 43.325 15.75 40.75C15.75 36.6125 16.5062 34.4313 18.6687 32.4625C19.7438 31.4875 21.5562 31.1938 23.4375 30.8312C25.5375 30.425 27.7188 29.9625 29.2625 28.7375ZM47.3125 45.75C47.8312 45.75 48.25 46.1688 48.25 46.6875C48.25 47.2062 47.8312 47.625 47.3125 47.625C46.7938 47.625 46.375 47.2062 46.375 46.6875C46.375 46.1688 46.7938 45.75 47.3125 45.75ZM28.5625 44.5C27.7 44.5 27 45.2 27 46.0625C27 46.925 27.7 47.625 28.5625 47.625C29.425 47.625 30.125 46.925 30.125 46.0625C30.125 45.2 29.425 44.5 28.5625 44.5ZM23.6625 37.7812C22.9 37.55 22.0563 37.5625 21.275 37.8562L20.9375 37.2687C20.7625 36.9688 20.3813 36.8688 20.0813 37.0375C19.7812 37.2125 19.6813 37.5938 19.85 37.8937L20.1875 38.4812C19.15 39.3375 18.6625 40.6813 18.875 41.9813L17.5563 42.475C17.2313 42.5937 17.0688 42.9562 17.1875 43.2812C17.3063 43.6062 17.6688 43.7687 17.9938 43.65L19.2812 43.1687C19.2812 43.1687 19.3125 43.225 19.3312 43.25C19.7375 43.9562 20.3438 44.4813 21.0375 44.7938L21 45.9563C20.9875 46.3 21.2625 46.5875 21.6062 46.6C21.95 46.6125 22.2375 46.3375 22.25 45.9937L22.2813 45.1125C22.7125 45.15 23.1563 45.1125 23.5875 44.9875L23.9562 45.6313C24.1312 45.9313 24.5125 46.0312 24.8125 45.8625C25.1125 45.6938 25.2125 45.3063 25.0438 45.0063L24.725 44.4562C25.725 43.7625 26.2937 42.65 26.3313 41.5L26.65 41.4812C26.9938 41.4625 27.2562 41.1625 27.2375 40.8188C27.2187 40.475 26.9187 40.2125 26.575 40.2312L26.1625 40.2562C26.0813 40 25.9687 39.7437 25.8312 39.5C25.5562 39.025 25.2 38.6375 24.7812 38.3375L25.475 36.9375C25.6312 36.6313 25.5 36.25 25.1938 36.1C24.8813 35.95 24.5063 36.075 24.3563 36.3812L23.6625 37.7812ZM28.5625 45.75C28.7375 45.75 28.875 45.8875 28.875 46.0625C28.875 46.2375 28.7375 46.375 28.5625 46.375C28.3875 46.375 28.25 46.2375 28.25 46.0625C28.25 45.8875 28.3875 45.75 28.5625 45.75ZM32.5688 45.075C32.9125 45.075 33.1938 45.3562 33.1938 45.7C33.1938 46.0437 32.9125 46.325 32.5688 46.325C32.225 46.325 31.9438 46.0437 31.9438 45.7C31.9438 45.3562 32.225 45.075 32.5688 45.075ZM24.7563 40.125C25.4438 41.3188 25.0375 42.85 23.8438 43.5375C22.65 44.225 21.1188 43.8188 20.4312 42.625C19.7437 41.4312 20.15 39.9 21.3438 39.2125C22.5375 38.525 24.0687 38.9312 24.7563 40.125ZM36.2563 28.15L35.875 29.5437C35.6313 29.5125 35.3812 29.5 35.1312 29.5C34.275 29.5 33.4625 29.6688 32.7188 29.9813L32.2812 28.675C32.175 28.35 31.8188 28.1687 31.4937 28.2812C31.1688 28.3875 30.9875 28.7437 31.1 29.0687L31.6063 30.5875C30.6063 31.2687 29.8188 32.2375 29.35 33.3687L28.2063 32.7C28.3813 32.4 28.2812 32.0187 27.9812 31.8438C27.6812 31.6688 27.3 31.7688 27.125 32.0688L26.4938 33.1438C26.3188 33.4438 26.4187 33.825 26.7188 34C27.0187 34.175 27.4 34.075 27.575 33.775L28.9875 34.6062C28.9187 34.975 28.8813 35.3563 28.8813 35.75C28.8813 36.3937 28.9812 37.0188 29.1625 37.6063L27.9375 38.3438C27.6438 38.5188 27.5437 38.9062 27.725 39.2C27.9 39.4937 28.2875 39.5938 28.5813 39.4125L29.6625 38.7625C30.1562 39.6562 30.8625 40.4188 31.7125 40.975L31.075 42.0813C30.775 41.9062 30.3938 42.0125 30.2188 42.3125C30.0437 42.6125 30.15 42.9937 30.45 43.1687L31.5312 43.7937C31.8312 43.9688 32.2125 43.8625 32.3875 43.5625C32.5625 43.2625 32.4562 42.8813 32.1562 42.7063L32.8188 41.5563C33.5375 41.8438 34.3187 42 35.1312 42V42.625C35.1312 42.9688 35.4125 43.25 35.7562 43.25C36.1 43.25 36.3812 42.9688 36.3812 42.625V41.875C37.2437 41.7 38.0375 41.35 38.7313 40.8562L39.7625 41.8875C39.5187 42.1313 39.5187 42.525 39.7625 42.7687C40.0062 43.0125 40.4 43.0125 40.6438 42.7687L41.525 41.8875C41.7688 41.6437 41.7688 41.25 41.525 41.0063C41.2813 40.7625 40.8875 40.7625 40.6438 41.0063L39.675 40.0375C40.4312 39.2313 40.9813 38.225 41.2313 37.1062L42.1938 37.3C42.5312 37.3687 42.8625 37.15 42.9313 36.8125C43 36.475 42.7812 36.1438 42.4437 36.075L41.3812 35.8625C41.3812 35.825 41.3812 35.7875 41.3812 35.75C41.3812 34.9625 41.2375 34.2062 40.9688 33.5063L43.65 32.1437C43.8062 32.45 44.1812 32.575 44.4875 32.4187C44.7937 32.2625 44.9187 31.8875 44.7625 31.5812L44.1937 30.4688C44.0375 30.1625 43.6625 30.0375 43.3562 30.1938C43.05 30.35 42.925 30.725 43.0812 31.0312L40.4 32.3938C39.6375 31.1938 38.4688 30.275 37.0938 29.8188L37.4625 28.4875C37.7938 28.5812 38.1375 28.3813 38.2313 28.05C38.325 27.7188 38.125 27.375 37.7938 27.2812L36.5875 26.95C36.2563 26.8562 35.9125 27.0563 35.8188 27.3875C35.725 27.7188 35.925 28.0625 36.2563 28.1562V28.15ZM28.25 41.375C28.5938 41.375 28.875 41.6562 28.875 42C28.875 42.3438 28.5938 42.625 28.25 42.625C27.9062 42.625 27.625 42.3438 27.625 42C27.625 41.6562 27.9062 41.375 28.25 41.375ZM23.875 40.75C24.2188 40.75 24.5 41.0312 24.5 41.375C24.5 41.7188 24.2188 42 23.875 42C23.5312 42 23.25 41.7188 23.25 41.375C23.25 41.0312 23.5312 40.75 23.875 40.75ZM21.7562 40.125C22.1 40.125 22.3813 40.4062 22.3813 40.75C22.3813 41.0938 22.1 41.375 21.7562 41.375C21.4125 41.375 21.1312 41.0938 21.1312 40.75C21.1312 40.4062 21.4125 40.125 21.7562 40.125ZM35.125 30.75C37.8875 30.75 40.125 32.9875 40.125 35.75C40.125 38.5125 37.8875 40.75 35.125 40.75C32.3625 40.75 30.125 38.5125 30.125 35.75C30.125 32.9875 32.3625 30.75 35.125 30.75ZM34.5 36.6875C33.6375 36.6875 32.9375 37.3875 32.9375 38.25C32.9375 39.1125 33.6375 39.8125 34.5 39.8125C35.3625 39.8125 36.0625 39.1125 36.0625 38.25C36.0625 37.3875 35.3625 36.6875 34.5 36.6875ZM34.5 37.9375C34.675 37.9375 34.8125 38.075 34.8125 38.25C34.8125 38.425 34.675 38.5625 34.5 38.5625C34.325 38.5625 34.1875 38.425 34.1875 38.25C34.1875 38.075 34.325 37.9375 34.5 37.9375ZM38.25 37C38.5938 37 38.875 37.2812 38.875 37.625C38.875 37.9688 38.5938 38.25 38.25 38.25C37.9062 38.25 37.625 37.9688 37.625 37.625C37.625 37.2812 37.9062 37 38.25 37ZM18.5625 34.5C17.7 34.5 17 35.2 17 36.0625C17 36.925 17.7 37.625 18.5625 37.625C19.425 37.625 20.125 36.925 20.125 36.0625C20.125 35.2 19.425 34.5 18.5625 34.5ZM44.5 35.125C44.8438 35.125 45.125 35.4062 45.125 35.75C45.125 36.0938 44.8438 36.375 44.5 36.375C44.1562 36.375 43.875 36.0938 43.875 35.75C43.875 35.4062 44.1562 35.125 44.5 35.125ZM36.6875 32C35.4813 32 34.5 32.9813 34.5 34.1875C34.5 35.3937 35.4813 36.375 36.6875 36.375C37.8937 36.375 38.875 35.3937 38.875 34.1875C38.875 32.9813 37.8937 32 36.6875 32ZM18.5625 35.75C18.7375 35.75 18.875 35.8875 18.875 36.0625C18.875 36.2375 18.7375 36.375 18.5625 36.375C18.3875 36.375 18.25 36.2375 18.25 36.0625C18.25 35.8875 18.3875 35.75 18.5625 35.75ZM32.625 33.875C32.9688 33.875 33.25 34.1562 33.25 34.5C33.25 34.8438 32.9688 35.125 32.625 35.125C32.2812 35.125 32 34.8438 32 34.5C32 34.1562 32.2812 33.875 32.625 33.875ZM36.6875 33.25C37.2062 33.25 37.625 33.6688 37.625 34.1875C37.625 34.7062 37.2062 35.125 36.6875 35.125C36.1688 35.125 35.75 34.7062 35.75 34.1875C35.75 33.6688 36.1688 33.25 36.6875 33.25ZM22.625 33.25C22.9688 33.25 23.25 33.5312 23.25 33.875C23.25 34.2188 22.9688 34.5 22.625 34.5C22.2812 34.5 22 34.2188 22 33.875C22 33.5312 22.2812 33.25 22.625 33.25ZM46.0625 27.625C45.2 27.625 44.5 28.325 44.5 29.1875C44.5 30.05 45.2 30.75 46.0625 30.75C46.925 30.75 47.625 30.05 47.625 29.1875C47.625 28.325 46.925 27.625 46.0625 27.625ZM16.6875 25.4375C15.4813 25.4375 14.5 26.4187 14.5 27.625C14.5 28.8313 15.4813 29.8125 16.6875 29.8125C17.8937 29.8125 18.875 28.8313 18.875 27.625C18.875 26.4187 17.8937 25.4375 16.6875 25.4375ZM46.0625 28.875C46.2375 28.875 46.375 29.0125 46.375 29.1875C46.375 29.3625 46.2375 29.5 46.0625 29.5C45.8875 29.5 45.75 29.3625 45.75 29.1875C45.75 29.0125 45.8875 28.875 46.0625 28.875ZM39.4312 20.5188C38.85 21.0687 38.4438 21.8 38.3062 22.625H37.6312C37.2875 22.625 37.0062 22.9062 37.0062 23.25C37.0062 23.5938 37.2875 23.875 37.6312 23.875H38.3062C38.5312 25.2063 39.45 26.2938 40.6812 26.7625L40.45 28.15C40.3938 28.4875 40.625 28.8125 40.9625 28.8687C41.3 28.925 41.625 28.6938 41.6813 28.3562L41.9062 27C41.9062 27 41.9688 27 42 27C42.8188 27 43.575 26.7375 44.1875 26.2938L45.175 26.9062C45.4688 27.0875 45.8562 27 46.0375 26.7063C46.2188 26.4125 46.1313 26.025 45.8375 25.8438L45.0875 25.3813C45.3375 25.025 45.5188 24.625 45.6313 24.1875H46.375C46.7188 24.1875 47 23.9062 47 23.5625C47 23.2188 46.7188 22.9375 46.375 22.9375H45.7375C45.6375 21.725 44.9562 20.675 43.9812 20.0625L44.125 19.775C44.2812 19.4687 44.1562 19.0875 43.8438 18.9375C43.5375 18.7812 43.1562 18.9062 43.0063 19.2188L42.8188 19.5875C42.5563 19.5312 42.2812 19.5 42 19.5C41.4562 19.5 40.9375 19.6188 40.4688 19.825L39.6062 18.525C39.4125 18.2375 39.025 18.1625 38.7375 18.35C38.45 18.5437 38.375 18.9313 38.5625 19.2188L39.425 20.5188H39.4312ZM16.6875 26.6875C17.2062 26.6875 17.625 27.1062 17.625 27.625C17.625 28.1438 17.2062 28.5625 16.6875 28.5625C16.1688 28.5625 15.75 28.1438 15.75 27.625C15.75 27.1062 16.1688 26.6875 16.6875 26.6875ZM24.1875 18.25C21.6 18.25 19.5 20.35 19.5 22.9375C19.5 25.525 21.6 27.625 24.1875 27.625C26.775 27.625 28.875 25.525 28.875 22.9375C28.875 20.35 26.775 18.25 24.1875 18.25ZM34.1875 23.875C33.325 23.875 32.625 24.575 32.625 25.4375C32.625 26.3 33.325 27 34.1875 27C35.05 27 35.75 26.3 35.75 25.4375C35.75 24.575 35.05 23.875 34.1875 23.875ZM24.1875 19.5C26.0875 19.5 27.625 21.0375 27.625 22.9375C27.625 24.8375 26.0875 26.375 24.1875 26.375C22.2875 26.375 20.75 24.8375 20.75 22.9375C20.75 21.0375 22.2875 19.5 24.1875 19.5ZM34.1875 25.125C34.3625 25.125 34.5 25.2625 34.5 25.4375C34.5 25.6125 34.3625 25.75 34.1875 25.75C34.0125 25.75 33.875 25.6125 33.875 25.4375C33.875 25.2625 34.0125 25.125 34.1875 25.125ZM42 20.75C43.3813 20.75 44.5 21.8688 44.5 23.25C44.5 24.6313 43.3813 25.75 42 25.75C40.6187 25.75 39.5 24.6313 39.5 23.25C39.5 21.8688 40.6187 20.75 42 20.75ZM23.4375 21.5688C22.9625 21.8313 22.6375 22.3375 22.625 22.9187L21.9688 23.3562C21.6813 23.55 21.6062 23.9375 21.7937 24.225C21.9875 24.5125 22.375 24.5875 22.6625 24.4L23.1312 24.0875C23.2562 24.2063 23.4062 24.3 23.5688 24.375V24.8188C23.5688 25.1625 23.85 25.4438 24.1938 25.4438C24.5375 25.4438 24.8188 25.1625 24.8188 24.8188V24.375C24.9875 24.3 25.1375 24.2 25.2687 24.075L26.2562 24.275C26.5938 24.3438 26.925 24.125 26.9937 23.7875C27.0625 23.45 26.8437 23.1188 26.5062 23.05L25.7563 22.8938C25.7563 22.7937 25.7437 22.7 25.725 22.6062L25.8875 22.4437C26.1312 22.2 26.1312 21.8063 25.8875 21.5563C25.6437 21.3125 25.25 21.3125 25 21.5563L24.975 21.5813C24.8875 21.5312 24.8 21.4875 24.7 21.4563L24.4875 20.5938C24.4062 20.2562 24.0625 20.0563 23.7313 20.1375C23.3938 20.2188 23.1938 20.5625 23.275 20.8937L23.4437 21.5625L23.4375 21.5688ZM42.3125 21.6875C41.45 21.6875 40.75 22.3875 40.75 23.25C40.75 24.1125 41.45 24.8125 42.3125 24.8125C43.175 24.8125 43.875 24.1125 43.875 23.25C43.875 22.3875 43.175 21.6875 42.3125 21.6875ZM42.3125 22.9375C42.4875 22.9375 42.625 23.075 42.625 23.25C42.625 23.425 42.4875 23.5625 42.3125 23.5625C42.1375 23.5625 42 23.425 42 23.25C42 23.075 42.1375 22.9375 42.3125 22.9375ZM24.1938 22.625H24.1812C24.0125 22.625 23.875 22.7688 23.875 22.9375C23.875 23.1062 24.0125 23.25 24.1875 23.25C24.3625 23.25 24.5 23.1125 24.5 22.9375C24.5 22.7625 24.3625 22.6313 24.1938 22.625ZM36.375 19.8125C36.7188 19.8125 37 20.0938 37 20.4375C37 20.7812 36.7188 21.0625 36.375 21.0625C36.0312 21.0625 35.75 20.7812 35.75 20.4375C35.75 20.0938 36.0312 19.8125 36.375 19.8125ZM30.75 15.75C29.7125 15.75 28.875 16.5875 28.875 17.625C28.875 18.6625 29.7125 19.5 30.75 19.5C31.7875 19.5 32.625 18.6625 32.625 17.625C32.625 16.5875 31.7875 15.75 30.75 15.75ZM41.0625 17C41.4062 17 41.6875 17.2812 41.6875 17.625C41.6875 17.9688 41.4062 18.25 41.0625 18.25C40.7188 18.25 40.4375 17.9688 40.4375 17.625C40.4375 17.2812 40.7188 17 41.0625 17ZM30.75 17C31.0938 17 31.375 17.2812 31.375 17.625C31.375 17.9688 31.0938 18.25 30.75 18.25C30.4062 18.25 30.125 17.9688 30.125 17.625C30.125 17.2812 30.4062 17 30.75 17Z" fill="#007472"/>
</svg>
