<svg width="24" height="24" viewBox="0 0 24 24" fill="none" xmlns="http://www.w3.org/2000/svg">
<g id="calendar (17) 1">
<path id="Vector" d="M3.02025 6.8715C3.04087 6.56737 3.08475 6.29812 3.19012 6.04312M3.02025 6.8715L2.92048 6.86468C2.94146 6.5554 2.98649 6.27407 3.09771 6.00493L3.09775 6.00484C3.36172 5.36793 3.86784 4.86194 4.50482 4.59813L3.19012 6.04312M3.02025 6.8715C3 7.16775 3 7.5315 3 7.98225V17.5181C3 17.9689 3 18.3326 3.02025 18.6281L2.92048 6.86473M3.02025 6.8715L2.92048 6.86473M3.19012 6.04312C3.44395 5.4307 3.93063 4.94416 4.54312 4.6905L3.19012 6.04312ZM2.92048 6.86473C2.9 7.16438 2.9 7.53091 2.9 7.97882V7.98225V17.5181V17.5216M2.92048 6.86473L2.9 17.5216M20.9023 6.00484L20.9023 6.00493C21.0135 6.27409 21.0585 6.55544 21.0795 6.86512M20.9023 6.00484L20.9797 6.87188M20.9023 6.00484C20.6383 5.36789 20.1322 4.86188 19.4951 4.59811M20.9023 6.00484L19.4951 4.59811M21.0795 6.86512L20.9797 6.87188M21.0795 6.86512C21.0795 6.86509 21.0795 6.86507 21.0795 6.86505L20.9797 6.87188M21.0795 6.86512C21.1 7.16441 21.1 7.53096 21.1 7.97889V7.98225V17.5177V17.5211C21.1 17.9691 21.1 18.3356 21.0795 18.6353M20.9797 6.87188C21 7.16775 21 7.5315 21 7.98225V17.5177C21 17.9685 21 18.3322 20.9797 18.6285M21.0795 18.6353L20.9797 18.6285M21.0795 18.6353C21.0795 18.6353 21.0795 18.6353 21.0795 18.6353L20.9797 18.6285M21.0795 18.6353C21.0585 18.9446 21.0135 19.2259 20.9023 19.4951L20.9023 19.4951C20.7716 19.8106 20.5801 20.0972 20.3387 20.3387C20.0972 20.5801 19.8106 20.7716 19.4951 20.9023L19.4951 20.9023C19.2259 21.0135 18.9446 21.0585 18.6349 21.0795M20.9797 18.6285L18.6281 20.9797M18.6349 21.0795L18.6281 20.9797M18.6349 21.0795C18.6349 21.0795 18.6349 21.0795 18.635 21.0795L18.6281 20.9797M18.6349 21.0795C18.3356 21.1 17.969 21.1 17.5211 21.1H17.5177H6.48225H6.47888C6.03095 21.1 5.6644 21.1 5.36473 21.0795M18.6281 20.9797C18.3322 21 17.9685 21 17.5177 21H6.48225C6.0315 21 5.66775 21 5.3715 20.9797M5.36473 21.0795L5.3715 20.9797M5.36473 21.0795C5.36472 21.0795 5.3647 21.0795 5.36468 21.0795L5.3715 20.9797M5.36473 21.0795C5.05543 21.0585 4.77408 21.0135 4.50493 20.9023L4.50485 20.9023C3.86779 20.6384 3.36163 20.1322 3.09774 19.4951L3.09771 19.4951C2.98649 19.2259 2.94146 18.9446 2.92048 18.635L5.3715 20.9797M6.48225 4.4H17.5177H17.5212C17.9691 4.4 18.3356 4.4 18.6353 4.42048L6.48225 4.4ZM6.48225 4.4H6.4788C6.03092 4.4 5.66402 4.4 5.36512 4.42048M6.48225 4.4L5.36512 4.42048M19.4951 4.59811C19.226 4.48649 18.9446 4.44146 18.6353 4.42048L19.4951 4.59811ZM2.9 17.5216C2.9 17.9695 2.9 18.336 2.92048 18.6349L2.9 17.5216ZM5.36512 4.42048C5.05546 4.44145 4.77406 4.48648 4.50486 4.59811L5.36512 4.42048ZM5.44654 5.61752L5.44658 5.61752C5.69997 5.60018 6.02589 5.60012 6.49988 5.60012H17.5001C17.974 5.60012 18.2996 5.60018 18.5533 5.61751C18.8018 5.63479 18.9374 5.6659 19.0357 5.70651C19.2056 5.77687 19.36 5.88 19.49 6.01002C19.62 6.14003 19.7231 6.29439 19.7935 6.46427C19.8341 6.56263 19.8656 6.69829 19.8825 6.94654L19.8825 6.94658C19.8998 7.19997 19.8999 7.52589 19.8999 7.99988V17.5001C19.8999 17.974 19.8998 18.2996 19.8825 18.5533C19.8652 18.8018 19.8341 18.9374 19.7935 19.0357C19.7231 19.2056 19.62 19.36 19.49 19.49C19.36 19.62 19.2057 19.7231 19.0358 19.7935C18.9374 19.8341 18.8018 19.8656 18.5535 19.8825L18.5534 19.8825C18.3 19.8998 17.9741 19.8999 17.5001 19.8999H6.49988C6.02589 19.8999 5.70034 19.8998 5.44657 19.8825C5.19812 19.8652 5.06254 19.8341 4.96426 19.7935C4.79439 19.7231 4.64003 19.62 4.51002 19.49C4.38 19.36 4.27687 19.2056 4.20651 19.0357C4.16587 18.9374 4.13441 18.8017 4.11752 18.5535L4.11752 18.5534C4.10018 18.3 4.10012 17.9741 4.10012 17.5001V7.99988C4.10012 7.52597 4.10018 7.20044 4.11751 6.94669C4.13479 6.69817 4.1659 6.56255 4.20651 6.46426C4.27687 6.29439 4.38 6.14003 4.51002 6.01002C4.64003 5.88 4.79439 5.77687 4.96426 5.70651C5.06263 5.66587 5.19828 5.63441 5.44654 5.61752Z" fill="#007472" stroke="#007472" stroke-width="0.2"/>
<path id="Vector_2" d="M4.00025 8.9C3.6687 8.9 3.4 9.1686 3.4 9.49988L4.00025 10.0001V10.1001H4.00033H20.5003C20.6594 10.1001 20.812 10.0369 20.9246 9.92437C21.0371 9.81184 21.1003 9.65921 21.1003 9.50006C21.1003 9.34092 21.0371 9.18829 20.9246 9.07576C20.812 8.96322 20.6594 8.9 20.5003 8.9H4.00025ZM8.60025 3.49988C8.60025 3.1686 8.33156 2.9 8 2.9C7.66877 2.9 7.40013 3.16865 7.40013 3.49988V5.50013C7.40013 5.65927 7.46335 5.8119 7.57588 5.92443C7.68841 6.03697 7.84104 6.10019 8.00019 6.10019C8.15933 6.10019 8.31196 6.03697 8.4245 5.92443C8.53703 5.8119 8.60025 5.65927 8.60025 5.50013V3.49988ZM16.6001 3.49988C16.6001 3.16865 16.3315 2.9 16.0003 2.9C15.6687 2.9 15.4 3.1686 15.4 3.49988V5.50013C15.4 5.65927 15.4632 5.8119 15.5758 5.92443C15.6883 6.03697 15.8409 6.10019 16.0001 6.10019C16.1592 6.10019 16.3118 6.03697 16.4244 5.92443C16.5369 5.8119 16.6001 5.65927 16.6001 5.50013V3.49988Z" fill="#007472" stroke="#007472" stroke-width="0.2"/>
<path id="Vector_3" d="M8.00012 14.1002C8.60771 14.1002 9.10025 13.6077 9.10025 13.0001C9.10025 12.3925 8.60771 11.9 8.00012 11.9C7.39254 11.9 6.9 12.3925 6.9 13.0001C6.9 13.6077 7.39254 14.1002 8.00012 14.1002Z" fill="#007472" stroke="#007472" stroke-width="0.2"/>
<path id="Vector_4" d="M12.0001 14.1002C12.6077 14.1002 13.1002 13.6077 13.1002 13.0001C13.1002 12.3925 12.6077 11.9 12.0001 11.9C11.3925 11.9 10.9 12.3925 10.9 13.0001C10.9 13.6077 11.3925 14.1002 12.0001 14.1002Z" fill="#007472" stroke="#007472" stroke-width="0.2"/>
<path id="Vector_5" d="M16.0001 14.1002C16.6077 14.1002 17.1002 13.6077 17.1002 13.0001C17.1002 12.3925 16.6077 11.9 16.0001 11.9C15.3925 11.9 14.9 12.3925 14.9 13.0001C14.9 13.6077 15.3925 14.1002 16.0001 14.1002Z" fill="#007472" stroke="#007472" stroke-width="0.2"/>
<path id="Vector_6" d="M8.00012 18.1004C8.60771 18.1004 9.10025 17.6078 9.10025 17.0002C9.10025 16.3927 8.60771 15.9001 8.00012 15.9001C7.39254 15.9001 6.9 16.3927 6.9 17.0002C6.9 17.6078 7.39254 18.1004 8.00012 18.1004Z" fill="#007472" stroke="#007472" stroke-width="0.2"/>
<path id="Vector_7" d="M12.0001 18.1004C12.6077 18.1004 13.1002 17.6078 13.1002 17.0002C13.1002 16.3927 12.6077 15.9001 12.0001 15.9001C11.3925 15.9001 10.9 16.3927 10.9 17.0002C10.9 17.6078 11.3925 18.1004 12.0001 18.1004Z" fill="#007472" stroke="#007472" stroke-width="0.2"/>
<path id="Vector_8" d="M16.0001 18.1004C16.6077 18.1004 17.1002 17.6078 17.1002 17.0002C17.1002 16.3927 16.6077 15.9001 16.0001 15.9001C15.3925 15.9001 14.9 16.3927 14.9 17.0002C14.9 17.6078 15.3925 18.1004 16.0001 18.1004Z" fill="#007472" stroke="#007472" stroke-width="0.2"/>
</g>
</svg>
