<svg width="64" height="64" viewBox="0 0 64 64" fill="none" xmlns="http://www.w3.org/2000/svg">
<rect width="64" height="64" rx="10" fill="white"/>
<path d="M41.7075 22.314L41.2394 22.0772C35.6204 19.2345 28.9676 19.3137 23.4179 22.2893C23.3449 22.3284 23.2684 22.3602 23.1918 22.3914C22.5412 22.6568 21.9907 23.2745 22.0001 23.9717C22.0287 26.0906 22.1742 30.5913 22.8636 34.6258C23.4772 38.2167 27.2912 41.4334 29.8715 43.2374C31.326 44.2544 33.2232 44.2541 34.6776 43.2371C37.2576 41.4332 41.0708 38.2166 41.6844 34.6258C42.4065 30.3995 42.5319 25.6618 42.5512 23.686C42.5568 23.1037 42.2271 22.5769 41.7075 22.314Z" stroke="#007472" stroke-width="2"/>
<path d="M32.1352 27.2393V34.1889M35.61 30.7141L28.7568 30.8106" stroke="#007472" stroke-width="2" stroke-linecap="round" stroke-linejoin="round"/>
</svg>
