<svg width="30" height="30" viewBox="0 0 30 30" fill="none" xmlns="http://www.w3.org/2000/svg">
<rect width="30" height="30" rx="5" fill="#FF3717"/>
<g clip-path="url(#clip0_11_1608)">
<mask id="mask0_11_1608" style="mask-type:luminance" maskUnits="userSpaceOnUse" x="5" y="5" width="20" height="20">
<path d="M5 5H25V25H5V5Z" fill="white"/>
</mask>
<g mask="url(#mask0_11_1608)">
<path d="M17.2305 15.0021L22.4321 9.80051C22.5829 9.65485 22.7032 9.48063 22.7859 9.28799C22.8687 9.09535 22.9122 8.88816 22.914 8.67851C22.9159 8.46886 22.8759 8.26094 22.7965 8.06689C22.7171 7.87285 22.5999 7.69656 22.4516 7.5483C22.3034 7.40005 22.1271 7.28281 21.933 7.20342C21.739 7.12403 21.5311 7.08408 21.3214 7.0859C21.1118 7.08772 20.9046 7.13128 20.712 7.21403C20.5193 7.29678 20.3451 7.41707 20.1994 7.56788L14.9979 12.7695L9.79627 7.56788C9.65008 7.41931 9.47591 7.30117 9.28383 7.22025C9.09174 7.13934 8.88554 7.09725 8.67711 7.09643C8.46868 7.09561 8.26215 7.13606 8.06943 7.21545C7.87671 7.29484 7.70162 7.41161 7.55425 7.55901C7.40688 7.70641 7.29016 7.88153 7.21081 8.07427C7.13146 8.26701 7.09106 8.47355 7.09193 8.68198C7.09281 8.89041 7.13494 9.0966 7.2159 9.28867C7.29686 9.48074 7.41505 9.65487 7.56364 9.80103L12.7652 15.0021L7.55101 20.2163C7.25892 20.5133 7.096 20.9136 7.09775 21.3301C7.09949 21.7467 7.26576 22.1456 7.56033 22.4401C7.8549 22.7346 8.25391 22.9008 8.67044 22.9025C9.08697 22.9041 9.48728 22.7411 9.78417 22.4489L14.9979 17.2352L20.1994 22.4363C20.3459 22.583 20.5199 22.6994 20.7115 22.7787C20.9031 22.858 21.1084 22.8987 21.3157 22.8984C21.628 22.8983 21.9332 22.8057 22.1928 22.6322C22.4524 22.4587 22.6547 22.2121 22.7742 21.9236C22.8937 21.6352 22.9249 21.3177 22.864 21.0115C22.8031 20.7053 22.6528 20.424 22.4321 20.2031L17.2305 15.0021Z" fill="white"/>
</g>
</g>
<defs>
<clipPath id="clip0_11_1608">
<rect width="20" height="20" fill="white" transform="translate(5 5)"/>
</clipPath>
</defs>
</svg>
