<svg width="14" height="14" viewBox="0 0 14 14" fill="none" xmlns="http://www.w3.org/2000/svg">
<g id="download (4) 1">
<path id="Vector" d="M6.79838 9.24092L6.79841 9.24088L6.79625 9.24004C6.73095 9.21472 6.67128 9.17679 6.62064 9.12841L4.28769 6.79547C4.23795 6.74572 4.19849 6.68667 4.17156 6.62167C4.14464 6.55667 4.13078 6.48701 4.13078 6.41666C4.13078 6.3463 4.14464 6.27664 4.17156 6.21165C4.19849 6.14665 4.23795 6.08759 4.28769 6.03785C4.33744 5.9881 4.3965 5.94864 4.46149 5.92172C4.52649 5.89479 4.59615 5.88094 4.6665 5.88094C4.73686 5.88094 4.80652 5.89479 4.87152 5.92172C4.9365 5.94863 4.99555 5.98809 5.04529 6.03782C5.0453 6.03783 5.04531 6.03784 5.04532 6.03785L6.38107 7.37944L6.4665 7.46524V7.34416V1.74999C6.4665 1.60854 6.52269 1.47289 6.62271 1.37287C6.72273 1.27285 6.85839 1.21666 6.99984 1.21666C7.14129 1.21666 7.27694 1.27285 7.37696 1.37287C7.47698 1.47289 7.53317 1.60854 7.53317 1.74999V7.34416V7.46524L7.6186 7.37944L8.95436 6.03785C9.05483 5.93738 9.19109 5.88094 9.33317 5.88094C9.47525 5.88094 9.61152 5.93738 9.71198 6.03785C9.81245 6.13831 9.86889 6.27458 9.86889 6.41666C9.86889 6.55874 9.81245 6.695 9.71198 6.79547L7.37943 9.12804C7.3793 9.12816 7.37917 9.12829 7.37904 9.12841C7.3284 9.17679 7.26873 9.21472 7.20343 9.24004L7.20341 9.23999L7.20129 9.24092C7.13783 9.26897 7.06922 9.28346 6.99984 9.28346C6.93046 9.28346 6.86184 9.26897 6.79838 9.24092ZM11.8727 8.37287C11.9727 8.27285 12.1084 8.21666 12.2498 8.21666C12.3913 8.21666 12.5269 8.27285 12.627 8.37287C12.727 8.47289 12.7832 8.60854 12.7832 8.74999V11.0833C12.7832 11.5342 12.6041 11.9666 12.2853 12.2854C11.9664 12.6042 11.534 12.7833 11.0832 12.7833H2.9165C2.46564 12.7833 2.03323 12.6042 1.71442 12.2854C1.39561 11.9666 1.2165 11.5342 1.2165 11.0833V8.74999C1.2165 8.60854 1.27269 8.47289 1.37271 8.37287C1.47273 8.27285 1.60839 8.21666 1.74984 8.21666C1.89129 8.21666 2.02694 8.27285 2.12696 8.37287C2.22698 8.47289 2.28317 8.60854 2.28317 8.74999V11.0833C2.28317 11.2513 2.3499 11.4124 2.46867 11.5312C2.58744 11.6499 2.74853 11.7167 2.9165 11.7167H11.0832C11.2511 11.7167 11.4122 11.6499 11.531 11.5312C11.6498 11.4124 11.7165 11.2513 11.7165 11.0833V8.74999C11.7165 8.60854 11.7727 8.47289 11.8727 8.37287Z" fill="#333333" stroke="white" stroke-width="0.1"/>
</g>
</svg>
