<svg width="14" height="14" viewBox="0 0 14 14" fill="none" xmlns="http://www.w3.org/2000/svg">
<g id="email (3) 1">
<path id="Vector" d="M2.49631 11.6H10.574C11.4318 11.6 12.1352 10.8771 12.1352 9.98125V3.99063C12.1352 3.12166 11.4306 2.4 10.574 2.4H2.49631C1.63971 2.4 0.935156 3.12166 0.935156 3.99063V10.0094C0.935156 10.8783 1.63971 11.6 2.49631 11.6ZM1.65897 3.99063C1.65897 3.53966 2.02767 3.1625 2.49631 3.1625H10.5464C10.9856 3.1625 11.3562 3.53771 11.3562 3.99063V9.98125C11.3562 10.4342 10.9856 10.8094 10.5464 10.8094H2.46874C2.0296 10.8094 1.65897 10.4342 1.65897 9.98125V3.99063Z" fill="#333333" stroke="#333333" stroke-width="0.2"/>
<path id="Vector_2" d="M5.22927 7.46337L5.22917 7.46345L5.23272 7.46711C5.57718 7.82223 6.03974 8.04401 6.53516 8.04401C7.05058 8.04401 7.5188 7.85323 7.81497 7.48794L10.409 4.52567C10.4844 4.45193 10.5141 4.35737 10.5043 4.26402C10.4946 4.17174 10.4472 4.08562 10.3781 4.01985C10.2181 3.86759 9.9921 3.91765 9.85736 4.04588L9.85707 4.04558L9.85107 4.05244L7.25301 7.01931L7.25297 7.01927L7.25082 7.0219C7.08005 7.23084 6.80872 7.34954 6.53516 7.34954C6.26159 7.34954 5.99027 7.23084 5.8195 7.0219L5.81954 7.02186L5.81724 7.01924L3.1934 4.02813C3.13213 3.95191 3.03719 3.91001 2.94451 3.90162C2.84992 3.89304 2.74434 3.91819 2.66486 3.99383C2.59576 4.05959 2.54832 4.14571 2.53863 4.238C2.52882 4.33134 2.55858 4.42591 2.63397 4.49965L5.22927 7.46337ZM3.89552 7.3771L3.89525 7.37682L3.88946 7.38338L2.03246 9.48841C1.95697 9.56217 1.92716 9.65679 1.93697 9.7502C1.94667 9.84248 1.9941 9.92861 2.06321 9.99437C2.09419 10.0239 2.14008 10.0424 2.17369 10.053C2.21083 10.0648 2.25557 10.074 2.29623 10.074C2.39677 10.074 2.50605 10.0425 2.58395 9.96834L2.58421 9.96862L2.59 9.96205L4.44701 7.85703C4.5225 7.78327 4.55231 7.68864 4.54249 7.59524C4.5328 7.50295 4.48536 7.41683 4.41626 7.35107C4.25625 7.1988 4.03026 7.24887 3.89552 7.3771ZM8.59598 7.83102L10.4769 9.95824C10.5561 10.0673 10.6724 10.1 10.7741 10.1C10.8152 10.1 10.8626 10.0907 10.9053 10.0726C10.9406 10.0577 10.9836 10.0321 11.0133 9.99019C11.1535 9.87414 11.1873 9.6346 11.0378 9.48839L9.15511 7.35917C9.09383 7.28306 8.99896 7.24123 8.90636 7.23283C8.81377 7.22444 8.71066 7.24835 8.6318 7.3203C8.48217 7.43257 8.44261 7.68096 8.59598 7.83102Z" fill="#333333" stroke="#333333" stroke-width="0.2"/>
</g>
</svg>
