<svg width="35" height="35" viewBox="0 0 35 35" fill="none" xmlns="http://www.w3.org/2000/svg">
<rect width="35" height="35" rx="7" fill="#007472"/>
<g clip-path="url(#clip0_8_1546)">
<path d="M25.1 27H9.9C8.855 27 8 26.145 8 25.1V9.9C8 8.855 8.855 8 9.9 8H14.65C15.22 8 15.6 8.38 15.6 8.95C15.6 9.52 15.22 9.9 14.65 9.9H10.85C10.28 9.9 9.9 10.28 9.9 10.85V24.15C9.9 24.72 10.28 25.1 10.85 25.1H24.15C24.72 25.1 25.1 24.72 25.1 24.15V20.35C25.1 19.78 25.48 19.4 26.05 19.4C26.62 19.4 27 19.78 27 20.35V25.1C27 26.145 26.145 27 25.1 27Z" fill="white"/>
<path d="M18.2596 15.41L25.0046 8.665C25.3846 8.285 25.9546 8.285 26.3346 8.665C26.7146 9.045 26.7146 9.615 26.3346 9.995L19.5896 16.74C19.2096 17.12 18.6396 17.12 18.2596 16.74C17.8796 16.455 17.8796 15.79 18.2596 15.41ZM22.2496 8H26.0496C26.6196 8 26.9996 8.38 26.9996 8.95C26.9996 9.52 26.6196 9.9 26.0496 9.9H22.2496C21.6796 9.9 21.2996 9.52 21.2996 8.95C21.2996 8.38 21.6796 8 22.2496 8ZM26.0496 8C26.6196 8 26.9996 8.38 26.9996 8.95V12.75C26.9996 13.32 26.6196 13.7 26.0496 13.7C25.4796 13.7 25.0996 13.32 25.0996 12.75V8.95C25.0996 8.38 25.4796 8 26.0496 8Z" fill="white"/>
</g>
<defs>
<clipPath id="clip0_8_1546">
<rect width="19" height="19" fill="white" transform="translate(8 8)"/>
</clipPath>
</defs>
</svg>
