<svg width="64" height="64" viewBox="0 0 64 64" fill="none" xmlns="http://www.w3.org/2000/svg">
<rect width="64" height="64" rx="10" fill="#F1FAFF"/>
<g clip-path="url(#clip0_72_443)">
<path d="M22.1001 46.4C20.9066 46.4 19.762 45.9259 18.9181 45.082C18.0742 44.238 17.6001 43.0935 17.6001 41.9V22.1C17.6001 20.9065 18.0742 19.7619 18.9181 18.918C19.762 18.0741 20.9066 17.6 22.1001 17.6H28.2906C28.6884 17.6 29.07 17.758 29.3513 18.0393C29.6326 18.3206 29.7906 18.7022 29.7906 19.1C29.7955 19.5172 29.6444 19.9212 29.3669 20.2328C29.0894 20.5444 28.7056 20.7411 28.2906 20.7845H22.2906C21.8928 20.7845 21.5112 20.9425 21.2299 21.2238C20.9486 21.5051 20.7906 21.8867 20.7906 22.2845V41.7155C20.7906 42.1133 20.9486 42.4948 21.2299 42.7761C21.5112 43.0574 21.8928 43.2155 22.2906 43.2155H41.6001C41.9979 43.2155 42.3795 43.0574 42.6608 42.7761C42.9421 42.4948 43.1001 42.1133 43.1001 41.7155V35.7155C43.1632 35.2917 43.3787 34.9056 43.7062 34.6294C44.0338 34.3532 44.4508 34.2061 44.8791 34.2155C45.2769 34.2155 45.6585 34.3735 45.9398 34.6548C46.2211 34.9361 46.3791 35.3176 46.3791 35.7155V41.906C46.3791 43.0995 45.905 44.244 45.0611 45.088C44.2172 45.9319 43.0726 46.406 41.8791 46.406L22.1001 46.4ZM37.3626 35.1185C37.1734 35.0347 37.0127 34.8976 36.9003 34.7239C36.7878 34.5501 36.7285 34.3474 36.7296 34.1405V30.623C36.4473 30.6083 36.1647 30.6013 35.8821 30.602C33.0096 30.602 27.9051 31.1285 25.9206 34.6625C25.8324 34.824 25.7022 34.9587 25.5438 35.0524C25.3854 35.1461 25.2046 35.1954 25.0206 35.195C24.9299 35.1953 24.8395 35.1832 24.7521 35.159C24.5311 35.0966 24.3366 34.9636 24.1984 34.7802C24.0603 34.5968 23.986 34.3731 23.9871 34.1435C24.0868 31.061 25.3027 28.1197 27.4086 25.8665C29.9146 23.4658 33.2548 22.1321 36.7251 22.1465V18.665C36.7238 18.4589 36.7831 18.2571 36.8956 18.0845C37.0082 17.9119 37.169 17.7763 37.3581 17.6945C37.5473 17.6149 37.756 17.5937 37.9573 17.6339C38.1587 17.674 38.3433 17.7734 38.4876 17.9195L46.0701 25.6595C46.2676 25.8591 46.3784 26.1286 46.3784 26.4095C46.3784 26.6903 46.2676 26.9598 46.0701 27.1595L38.4876 34.898C38.3432 35.0437 38.1586 35.1431 37.9574 35.1835C37.7562 35.2238 37.5476 35.2033 37.3581 35.1245L37.3626 35.1185ZM37.5891 28.34C37.8169 28.368 38.0264 28.4793 38.1773 28.6523C38.3281 28.8253 38.4098 29.0479 38.4066 29.2775V31.0205L42.9336 26.405L38.4141 21.7895V23.54C38.4137 23.7865 38.3162 24.023 38.1427 24.1982C37.9692 24.3734 37.7337 24.4732 37.4871 24.476C36.0514 24.3776 34.6108 24.5732 33.2534 25.0509C31.896 25.5286 30.6503 26.2782 29.5926 27.254C28.7497 28.1308 28.0993 29.1741 27.6831 30.317C30.1431 28.8716 32.9648 28.1591 35.8161 28.2635C36.8646 28.265 37.5501 28.343 37.5861 28.343L37.5891 28.34Z" fill="#007472"/>
</g>
<defs>
<clipPath id="clip0_72_443">
<rect width="36" height="36" fill="white" transform="translate(14 14)"/>
</clipPath>
</defs>
</svg>
