<svg width="22" height="22" viewBox="0 0 22 22" fill="none" xmlns="http://www.w3.org/2000/svg">
<g id="View_hide_fill">
<path id="Subtract" fill-rule="evenodd" clip-rule="evenodd" d="M16.8102 13.7719C17.512 13.1281 18.0894 12.4827 18.5061 11.9769C18.8619 11.5449 19.0398 11.3289 19.0398 11C19.0398 10.6711 18.8619 10.4551 18.5061 10.0231C17.2043 8.44263 14.3331 5.5 11.0004 5.5C10.2779 5.5 9.57712 5.63828 8.90932 5.87099L11.305 8.26669C12.5804 8.40725 13.5931 9.41996 13.7337 10.6953L16.8102 13.7719ZM8.54868 9.75299C8.35792 10.1273 8.25036 10.5511 8.25036 11C8.25036 12.5188 9.48157 13.75 11.0004 13.75C11.4493 13.75 11.8731 13.6424 12.2474 13.4517L14.3581 15.5624C13.3324 16.1212 12.1961 16.5 11.0004 16.5C7.6676 16.5 4.79641 13.5574 3.49466 11.9769C3.13884 11.5449 2.96094 11.3289 2.96094 11C2.96094 10.6711 3.13885 10.4551 3.49466 10.0231C4.09469 9.29459 5.02818 8.27667 6.18662 7.39093L8.54868 9.75299Z" fill="#007472"/>
<path id="Vector 116" d="M4.58301 1.83334L19.2497 16.5" stroke="#007472" stroke-width="2"/>
</g>
</svg>
