<svg width="18" height="12" viewBox="0 0 18 12" fill="none" xmlns="http://www.w3.org/2000/svg">
<path fill-rule="evenodd" clip-rule="evenodd" d="M17.0398 6C17.0398 5.6711 16.8619 5.4551 16.5061 5.0231C15.2043 3.44263 12.3331 0.5 9.00036 0.5C5.6676 0.5 2.79641 3.44263 1.49466 5.0231C1.13885 5.4551 0.960938 5.6711 0.960938 6C0.960938 6.32891 1.13884 6.5449 1.49466 6.9769C2.79641 8.55737 5.6676 11.5 9.00036 11.5C12.3331 11.5 15.2043 8.55737 16.5061 6.9769C16.8619 6.5449 17.0398 6.32891 17.0398 6ZM9.00036 8.75C10.5191 8.75 11.7504 7.51878 11.7504 6C11.7504 4.48122 10.5191 3.25 9.00036 3.25C7.48157 3.25 6.25036 4.48122 6.25036 6C6.25036 7.51878 7.48157 8.75 9.00036 8.75Z" fill="#007472"/>
</svg>
