<svg width="32" height="32" viewBox="0 0 32 32" fill="none" xmlns="http://www.w3.org/2000/svg">
<g id="facebook (7) 1">
<path id="Vector" fill-rule="evenodd" clip-rule="evenodd" d="M12.929 16.1032V27.5612C12.929 27.7161 13.058 27.8709 13.2387 27.8709H17.4967C17.6516 27.8709 17.8064 27.7419 17.8064 27.5612V15.8967H20.8774C21.0322 15.8967 21.1612 15.7677 21.187 15.6129L21.4451 12.129C21.4709 11.9483 21.3161 11.7935 21.1354 11.7935H17.7806V9.31607C17.7806 8.72253 18.2451 8.25801 18.8387 8.25801H21.2128C21.3677 8.25801 21.5225 8.12898 21.5225 7.94833V4.46446C21.5225 4.30962 21.3935 4.15479 21.2128 4.15479H17.187C14.8387 4.15479 12.929 6.06446 12.929 8.41285V11.7935H10.8129C10.658 11.7935 10.5032 11.9225 10.5032 12.1032V15.6129C10.5032 15.7677 10.6322 15.9225 10.8129 15.9225H12.929V16.1032Z" fill="white"/>
</g>
</svg>
