<svg width="14" height="10" viewBox="0 0 14 10" fill="none" xmlns="http://www.w3.org/2000/svg">
<path d="M12.6252 4.06249H3.63458L5.79083 1.91562C5.96737 1.73908 6.06654 1.49965 6.06654 1.24999C6.06654 1.00033 5.96737 0.7609 5.79083 0.584365C5.6143 0.407831 5.37487 0.308655 5.12521 0.308655C4.87555 0.308655 4.63612 0.407831 4.45958 0.584365L0.709583 4.33437C0.624232 4.42352 0.557328 4.52866 0.512708 4.64374C0.418941 4.87199 0.418941 5.12799 0.512708 5.35624C0.557328 5.47132 0.624232 5.57646 0.709583 5.66561L4.45958 9.41561C4.54674 9.50348 4.65042 9.57323 4.76467 9.62083C4.87891 9.66842 5.00145 9.69293 5.12521 9.69293C5.24897 9.69293 5.37151 9.66842 5.48575 9.62083C5.59999 9.57323 5.70368 9.50348 5.79083 9.41561C5.8787 9.32846 5.94845 9.22477 5.99604 9.11053C6.04364 8.99629 6.06814 8.87375 6.06814 8.74999C6.06814 8.62623 6.04364 8.50369 5.99604 8.38945C5.94845 8.27521 5.8787 8.17152 5.79083 8.08437L3.63458 5.93749H12.6252C12.8738 5.93749 13.1123 5.83872 13.2881 5.6629C13.4639 5.48709 13.5627 5.24863 13.5627 4.99999C13.5627 4.75135 13.4639 4.51289 13.2881 4.33708C13.1123 4.16126 12.8738 4.06249 12.6252 4.06249Z" fill="#007472"/>
</svg>
