<svg width="32" height="32" viewBox="0 0 32 32" fill="none" xmlns="http://www.w3.org/2000/svg">
<g id="linkedin 1">
<path id="Vector" d="M26.4259 18.2453V25.6001C26.4259 25.7807 26.2711 25.9356 26.0904 25.9356H22.2969C22.1162 25.9356 21.9614 25.7807 21.9614 25.6001V18.7614C21.9614 16.9549 21.3162 15.7162 19.6904 15.7162C18.4517 15.7162 17.7291 16.542 17.3936 17.342C17.2646 17.6259 17.2388 18.0388 17.2388 18.4259V25.6001C17.2388 25.7807 17.084 25.9356 16.9033 25.9356H13.1356C12.9549 25.9356 12.8001 25.7807 12.8001 25.6001C12.8001 23.7678 12.8517 14.9162 12.8001 12.8517C12.8001 12.6711 12.9549 12.5162 13.1356 12.5162H16.9291C17.1098 12.5162 17.2646 12.6711 17.2646 12.8517V14.4259C17.2646 14.4517 17.2388 14.4517 17.2388 14.4775H17.2646V14.4259C17.8582 13.5227 18.9162 12.2065 21.2904 12.2065C24.2323 12.2065 26.4259 14.142 26.4259 18.2453ZM6.19364 25.9614H9.98719C10.1678 25.9614 10.3227 25.8065 10.3227 25.6259V12.8517C10.3227 12.6711 10.1678 12.5162 9.98719 12.5162H6.19364C6.01299 12.5162 5.85815 12.6711 5.85815 12.8517V25.6259C5.88396 25.8065 6.01299 25.9614 6.19364 25.9614Z" fill="white"/>
<path id="Vector_2" d="M7.97422 10.8388C9.2997 10.8388 10.3742 9.7643 10.3742 8.43882C10.3742 7.11334 9.2997 6.03882 7.97422 6.03882C6.64874 6.03882 5.57422 7.11334 5.57422 8.43882C5.57422 9.7643 6.64874 10.8388 7.97422 10.8388Z" fill="white"/>
</g>
</svg>
