<svg width="64" height="64" viewBox="0 0 64 64" fill="none" xmlns="http://www.w3.org/2000/svg">
<rect width="64" height="64" rx="10" fill="#F1FAFF"/>
<path d="M35.375 42.125H28.625C28.004 42.125 27.5 42.629 27.5 43.25C27.5 43.871 28.004 44.375 28.625 44.375H35.375C35.996 44.375 36.5 43.871 36.5 43.25C36.5 42.629 35.996 42.125 35.375 42.125Z" fill="#007472"/>
<path d="M38.1875 15.125H25.8125C23.0214 15.125 20.75 17.3964 20.75 20.1875V43.8125C20.75 46.6036 23.0214 48.875 25.8125 48.875H38.1875C40.9792 48.875 43.25 46.6036 43.25 43.8125V20.1875C43.25 17.3964 40.9792 15.125 38.1875 15.125ZM35.7215 17.375C35.4369 18.1349 35.1061 19.0181 34.8783 19.625H29.1234L28.2796 17.375H35.7215ZM41 43.8125C41 45.3633 39.7383 46.625 38.1875 46.625H25.8125C24.2617 46.625 23 45.3633 23 43.8125V20.1875C23 18.6367 24.2617 17.375 25.8125 17.375H25.8766L27.1535 20.7793C27.3988 21.4346 28.0338 21.875 28.7336 21.875H35.2681C35.9668 21.875 36.6013 21.4363 36.8471 20.7838C37.1255 20.0441 37.7589 18.3515 38.1245 17.375H38.1875C39.7383 17.375 41 18.6367 41 20.1875V43.8125Z" fill="#007472"/>
</svg>
