<svg width="14" height="14" viewBox="0 0 14 14" fill="none" xmlns="http://www.w3.org/2000/svg">
<g id="print (1) 1">
<path id="Vector" d="M10.2582 1.73717C10.2582 1.22655 9.84378 0.812167 9.33317 0.812167H4.6665C4.15589 0.812167 3.7415 1.22655 3.7415 1.73717V3.77883C3.7415 3.96745 3.89456 4.1205 4.08317 4.1205H9.9165C10.1051 4.1205 10.2582 3.96745 10.2582 3.77883V1.73717ZM9.57484 1.73717V3.43717H4.42484V1.73717C4.42484 1.60378 4.53312 1.4955 4.6665 1.4955H9.33317C9.46656 1.4955 9.57484 1.60378 9.57484 1.73717Z" fill="#333333" stroke="#333333" stroke-width="0.1"/>
<path id="Vector_2" d="M9.91683 9.95383H11.6668C12.1774 9.95383 12.5918 9.54005 12.5918 9.02883V4.36217C12.5918 3.85155 12.1774 3.43717 11.6668 3.43717H11.656H11.6451H11.6341H11.6231H11.6119H11.6006H11.5893H11.5779H11.5664H11.5548H11.5431H11.5314H11.5196H11.5076H11.4956H11.4836H11.4714H11.4591H11.4468H11.4344H11.4219H11.4093H11.3967H11.384H11.3712H11.3583H11.3453H11.3323H11.3191H11.3059H11.2927H11.2793H11.2659H11.2524H11.2388H11.2251H11.2114H11.1976H11.1837H11.1697H11.1557H11.1416H11.1274H11.1132H11.0989H11.0845H11.07H11.0555H11.0409H11.0262H11.0114H10.9966H10.9817H10.9668H10.9517H10.9366H10.9215H10.9062H10.8909H10.8756H10.8601H10.8446H10.8291H10.8134H10.7977H10.782H10.7662H10.7503H10.7343H10.7183H10.7022H10.6861H10.6698H10.6536H10.6372H10.6208H10.6044H10.5879H10.5713H10.5546H10.5379H10.5212H10.5044H10.4875H10.4706H10.4536H10.4365H10.4194H10.4022H10.385H10.3677H10.3504H10.333H10.3155H10.298H10.2805H10.2628H10.2452H10.2275H10.2097H10.1918H10.174H10.156H10.138H10.12H10.1019H10.0838H10.0656H10.0473H10.029H10.0107H9.99229H9.97385H9.95536H9.93682H9.91823H9.89959H9.88091H9.86218H9.8434H9.82458H9.80571H9.78679H9.76783H9.74882H9.72977H9.71067H9.69153H9.67235H9.65312H9.63385H9.61454H9.59519H9.57579H9.55635H9.53687H9.51735H9.49779H9.47819H9.45855H9.43887H9.41915H9.39939H9.37959H9.35975H9.33988H9.31997H9.30002H9.28003H9.26001H9.23995H9.21986H9.19973H9.17956H9.15936H9.13913H9.11886H9.09856H9.07822H9.05785H9.03745H9.01702H8.99655H8.97605H8.95552H8.93496H8.91437H8.89375H8.8731H8.85242H8.83171H8.81097H8.7902H8.7694H8.74858H8.72772H8.70684H8.68594H8.665H8.64405H8.62306H8.60205H8.58101H8.55995H8.53886H8.51775H8.49662H8.47546H8.45428H8.43308H8.41185H8.3906H8.36933H8.34804H8.32673H8.30539H8.28404H8.26267H8.24127H8.21986H8.19843H8.17697H8.1555H8.13402H8.11251H8.09099H8.06945H8.04789H8.02631H8.00473H7.98312H7.9615H7.93986H7.91821H7.89655H7.87487H7.85318H7.83147H7.80975H7.78802H7.76628H7.74452H7.72276H7.70098H7.67919H7.65739H7.63558H7.61376H7.59193H7.57009H7.54824H7.52639H7.50452H7.48265H7.46077H7.43888H7.41699H7.39509H7.37318H7.35127H7.32935H7.30743H7.2855H7.26357H7.24163H7.21969H7.19775H7.1758H7.15385H7.1319H7.10995H7.08799H7.06604H7.04408H7.02212H7.00016H6.9782H6.95625H6.93429H6.91233H6.89038H6.86842H6.84647H6.82452H6.80258H6.78063H6.75869H6.73676H6.71482H6.6929H6.67097H6.64906H6.62714H6.60524H6.58334H6.56144H6.53956H6.51768H6.4958H6.47394H6.45208H6.43024H6.4084H6.38657H6.36475H6.34294H6.32114H6.29935H6.27757H6.2558H6.23405H6.2123H6.19057H6.16885H6.14715H6.12546H6.10378H6.08211H6.06046H6.03883H6.01721H5.9956H5.97401H5.95244H5.93088H5.90934H5.88782H5.86631H5.84482H5.82335H5.8019H5.78047H5.75905H5.73766H5.71628H5.69493H5.6736H5.65228H5.63099H5.60972H5.58847H5.56725H5.54604H5.52486H5.5037H5.48257H5.46146H5.44037H5.41931H5.39828H5.37727H5.35628H5.33532H5.31439H5.29348H5.2726H5.25175H5.23092H5.21013H5.18936H5.16862H5.14791H5.12723H5.10658H5.08595H5.06536H5.0448H5.02427H5.00377H4.98331H4.96287H4.94247H4.9221H4.90177H4.88147H4.8612H4.84096H4.82076H4.8006H4.78047H4.76037H4.74032H4.72029H4.70031H4.68036H4.66045H4.64057H4.62074H4.60094H4.58118H4.56146H4.54178H4.52214H4.50253H4.48297H4.46345H4.44397H4.42453H4.40514H4.38578H4.36647H4.3472H4.32797H4.30879H4.28965H4.27056H4.2515H4.2325H4.21354H4.19462H4.17575H4.15693H4.13815H4.11942H4.10073H4.0821H4.06351H4.04497H4.02648H4.00803H3.98964H3.97129H3.953H3.93476H3.91656H3.89842H3.88033H3.86229H3.8443H3.82636H3.80848H3.79065H3.77287H3.75515H3.73748H3.71986H3.7023H3.6848H3.66735H3.64995H3.63261H3.61533H3.5981H3.58093H3.56382H3.54677H3.52977H3.51284H3.49596H3.47914H3.46238H3.44568H3.42904H3.41246H3.39594H3.37948H3.36309H3.34675H3.33048H3.31427H3.29812H3.28204H3.26602H3.25006H3.23417H3.21834H3.20258H3.18688H3.17125H3.15568H3.14018H3.12475H3.10938H3.09408H3.07885H3.06368H3.04859H3.03356H3.0186H3.00372H2.9889H2.97415H2.95947H2.94486H2.93033H2.91586H2.90147H2.88714H2.87289H2.85872H2.84461H2.83058H2.81663H2.80275H2.78894H2.7752H2.76155H2.74796H2.73446H2.72103H2.70767H2.6944H2.6812H2.66807H2.65503H2.64206H2.62917H2.61636H2.60363H2.59098H2.57841H2.56592H2.55351H2.54119H2.52894H2.51677H2.50469H2.49269H2.48077H2.46893H2.45718H2.44551H2.43392H2.42242H2.41101H2.39968H2.38843H2.37727H2.3662H2.35521H2.34431H2.3335C1.82288 3.43717 1.4085 3.85155 1.4085 4.36217V9.02883C1.4085 9.54005 1.8229 9.95383 2.3335 9.95383H2.33594H2.33839H2.34084H2.34329H2.34575H2.34822H2.35069H2.35316H2.35564H2.35812H2.36061H2.3631H2.3656H2.3681H2.37061H2.37312H2.37563H2.37815H2.38067H2.3832H2.38573H2.38827H2.39081H2.39335H2.3959H2.39846H2.40101H2.40358H2.40614H2.40872H2.41129H2.41387H2.41646H2.41905H2.42164H2.42424H2.42684H2.42944H2.43206H2.43467H2.43729H2.43991H2.44254H2.44517H2.44781H2.45045H2.4531H2.45575H2.4584H2.46106H2.46372H2.46639H2.46906H2.47173H2.47441H2.4771H2.47979H2.48248H2.48518H2.48788H2.49058H2.49329H2.49601H2.49872H2.50145H2.50417H2.5069H2.50964H2.51238H2.51512H2.51787H2.52062H2.52338H2.52614H2.5289H2.53167H2.53444H2.53722H2.54H2.54279H2.54558H2.54837H2.55117H2.55397H2.55678H2.55959H2.5624H2.56522H2.56805H2.57087H2.5737H2.57654H2.57938H2.58222H2.58507H2.58792H2.59078H2.59364H2.5965H2.59937H2.60224H2.60512H2.608H2.61089H2.61377H2.61667H2.61956H2.62247H2.62537H2.62828H2.63119H2.63411H2.63703H2.63996H2.64289H2.64582H2.64876H2.6517H2.65464H2.65759H2.66055H2.66351H2.66647H2.66943H2.6724H2.67538H2.67835H2.68134H2.68432H2.68731H2.6903H2.6933H2.6963H2.69931H2.70232H2.70533H2.70835H2.71137H2.7144H2.71743H2.72046H2.7235H2.72654H2.72958H2.73263H2.73568H2.73874H2.7418H2.74487H2.74793H2.75101H2.75408H2.75716H2.76025H2.76334H2.76643H2.76952H2.77262H2.77573H2.77883H2.78195H2.78506H2.78818H2.7913H2.79443H2.79756H2.80069H2.80383H2.80697H2.81012H2.81327H2.81642H2.81958H2.82274H2.82591H2.82907H2.83225H2.83542H2.8386H2.84179H2.84497H2.84817H2.85136H2.85456H2.85776H2.86097H2.86418H2.86739H2.87061H2.87383H2.87706H2.88029H2.88352H2.88675H2.88999H2.89324H2.89649H2.89974H2.90299H2.90625H2.90951H2.91278H2.91605H2.91932H2.9226H2.92588H2.92917H2.93245H2.93575H2.93904H2.94234H2.94564H2.94895H2.95226H2.95557H2.95889H2.96221H2.96554H2.96886H2.9722H2.97553H2.97887H2.98221H2.98556H2.98891H2.99226H2.99562H2.99898H3.00235H3.00571H3.00909H3.01246H3.01584H3.01922H3.02261H3.026H3.02939H3.03279H3.03619H3.03959H3.043H3.04641H3.04982H3.05324H3.05666H3.06009H3.06351H3.06695H3.07038H3.07382H3.07726H3.08071H3.08416H3.08761H3.09107H3.09453H3.09799H3.10146H3.10493H3.1084H3.11188H3.11536H3.11884H3.12233H3.12582H3.12932H3.13281H3.13632H3.13982H3.14333H3.14684H3.15035H3.15387H3.15739H3.16092H3.16445H3.16798H3.17152H3.17505H3.1786H3.18214H3.18569H3.18924H3.1928H3.19636H3.19992H3.20349H3.20706H3.21063H3.2142H3.21778H3.22137H3.22495H3.22854H3.23213H3.23573H3.23933H3.24293H3.24654H3.25015H3.25376H3.25737H3.26099H3.26461H3.26824H3.27187H3.2755H3.27914H3.28278H3.28642H3.29006H3.29371H3.29736H3.30102H3.30468H3.30834H3.312H3.31567H3.31934H3.32302H3.32669H3.33037H3.33406H3.33774H3.34144H3.34513H3.34883H3.35253H3.35623H3.35994H3.36364H3.36736H3.37107H3.37479H3.37852H3.38224H3.38597H3.3897H3.39344H3.39717H3.40091H3.40466H3.40841H3.41216H3.41591H3.41967H3.42343H3.42719H3.43096H3.43473H3.4385H3.44227H3.44605H3.44983H3.45362H3.45741H3.4612H3.46499H3.46879H3.47259H3.47639H3.4802H3.48401H3.48782H3.49164H3.49545H3.49928H3.5031H3.50693H3.51076H3.51459H3.51843H3.52227H3.52611H3.52996H3.53381H3.53766H3.54151H3.54537H3.54923H3.55309H3.55696H3.56083H3.5647H3.56858H3.57246H3.57634H3.58022H3.58411H3.588H3.59189H3.59579H3.59969H3.60359H3.6075H3.6114H3.61531H3.61923H3.62315H3.62706H3.63099H3.63491H3.63884H3.64277H3.64671H3.65064H3.65458H3.65853H3.66247H3.66642H3.67037H3.67433H3.67828H3.68224H3.6862H3.69017H3.69414H3.69811H3.70208H3.70606H3.71004H3.71402H3.71801H3.722H3.72599H3.72998H3.73398H3.73798H3.74198H3.74598H3.74999H3.754H3.75802H3.76203H3.76605H3.77007H3.7741H3.77812H3.78215H3.78619H3.79022H3.79426H3.7983H3.80234H3.80639H3.81044H3.81449H3.81855H3.8226H3.82666H3.83072H3.83479H3.83886H3.84293H3.847H3.85108H3.85516H3.85924H3.86332H3.86741H3.8715H3.87559H3.87969H3.88378H3.88788H3.89199H3.89609H3.9002H3.90431H3.90842H3.91254H3.91666H3.92078H3.9249H3.92903H3.93316H3.93729H3.94142H3.94556H3.9497H3.95384H3.95798H3.96213H3.96628H3.97043H3.97459H3.97874H3.9829H3.98707H3.99123H3.9954H3.99957H4.00374H4.00792H4.01209H4.01627H4.02046H4.02464H4.02883H4.03302H4.03721H4.04141H4.04561H4.04981H4.05401H4.05821H4.06242H4.06663H4.07084H4.07506H4.07928H4.0835C4.27211 9.95383 4.42516 9.80078 4.42516 9.61217C4.42516 9.42355 4.27211 9.2705 4.0835 9.2705H2.3335C2.20011 9.2705 2.09183 9.16222 2.09183 9.02883V4.36217C2.09183 4.22878 2.20011 4.1205 2.3335 4.1205H11.6668C11.8002 4.1205 11.9085 4.22878 11.9085 4.36217V9.02883C11.9085 9.16222 11.8002 9.2705 11.6668 9.2705H9.91683C9.72821 9.2705 9.57516 9.42355 9.57516 9.61217C9.57516 9.80078 9.72821 9.95383 9.91683 9.95383Z" fill="#333333" stroke="#333333" stroke-width="0.1"/>
<path id="Vector_3" d="M10.2582 7.57051C10.2582 7.38189 10.1051 7.22884 9.9165 7.22884H4.08317C3.89456 7.22884 3.7415 7.38189 3.7415 7.57051V12.8205C3.7415 13.0091 3.89456 13.1622 4.08317 13.1622H9.9165C10.1051 13.1622 10.2582 13.0091 10.2582 12.8205V7.57051ZM9.57484 7.91217V12.4788H4.42484V7.91217H9.57484Z" fill="#333333" stroke="#333333" stroke-width="0.1"/>
<path id="Vector_4" d="M10.5002 7.22883H3.50016C3.31155 7.22883 3.1585 7.38189 3.1585 7.5705C3.1585 7.75911 3.31155 7.91217 3.50016 7.91217H10.5002C10.6888 7.91217 10.8418 7.75911 10.8418 7.5705C10.8418 7.38189 10.6888 7.22883 10.5002 7.22883ZM8.16683 8.97883H5.8335C5.64488 8.97883 5.49183 9.13189 5.49183 9.3205C5.49183 9.50911 5.64488 9.66217 5.8335 9.66217H8.16683C8.35544 9.66217 8.5085 9.50911 8.5085 9.3205C8.5085 9.13189 8.35544 8.97883 8.16683 8.97883ZM8.16683 10.7288H5.8335C5.64488 10.7288 5.49183 10.8819 5.49183 11.0705C5.49183 11.2591 5.64488 11.4122 5.8335 11.4122H8.16683C8.35544 11.4122 8.5085 11.2591 8.5085 11.0705C8.5085 10.8819 8.35544 10.7288 8.16683 10.7288ZM10.5002 5.18717H9.3335C9.14488 5.18717 8.99183 5.34022 8.99183 5.52883C8.99183 5.71745 9.14488 5.8705 9.3335 5.8705H10.5002C10.6888 5.8705 10.8418 5.71745 10.8418 5.52883C10.8418 5.34022 10.6888 5.18717 10.5002 5.18717Z" fill="#333333" stroke="#333333" stroke-width="0.1"/>
</g>
</svg>
