<svg width="64" height="64" viewBox="0 0 64 64" fill="none" xmlns="http://www.w3.org/2000/svg">
<rect width="64" height="64" rx="10" fill="#F1FAFF"/>
<path d="M30.3125 38.2842L27.7328 35.7046L26.1421 37.2953L30.3125 41.4657L37.8578 33.9203L36.2671 32.3296L30.3125 38.2842Z" fill="#007472"/>
<path d="M32 24.025C29.644 24.0237 27.3377 24.6931 25.35 25.9531V24.125C25.35 20.4576 28.3326 17.475 32 17.475C35.6674 17.475 38.65 20.4576 38.65 24.125V25.9531C36.6623 24.6931 34.356 24.0237 32 24.025ZM32 24.025C32 24.025 32 24.025 32.0001 24.025L32 24.125L31.9999 24.025C32 24.025 32 24.025 32 24.025ZM41.1 27.9847V24.125C41.1 21.7115 40.1413 19.3969 38.4347 17.6903C36.7281 15.9837 34.4135 15.025 32 15.025C29.5865 15.025 27.2719 15.9837 25.5653 17.6903C23.8587 19.3969 22.9 21.7115 22.9 24.125V27.9856C20.7316 30.2897 19.5241 33.3351 19.525 36.5C19.525 43.3885 25.1115 48.975 32 48.975C38.8907 48.975 44.475 43.3885 44.475 36.5C44.475 33.2037 43.1874 30.2154 41.1 27.9847ZM32 46.525C26.4629 46.525 21.975 42.0371 21.975 36.5C21.975 30.9629 26.4629 26.475 32 26.475C37.5371 26.475 42.025 30.9629 42.025 36.5C42.025 42.0371 37.5371 46.525 32 46.525Z" fill="#007472" stroke="#007472" stroke-width="0.2"/>
</svg>
