<svg width="65" height="64" viewBox="0 0 65 64" fill="none" xmlns="http://www.w3.org/2000/svg">
<rect x="0.5" width="64" height="64" rx="10" fill="#F1FAFF"/>
<path d="M25.0781 34.375C23.8971 34.375 22.7644 33.9058 21.9293 33.0707C21.0942 32.2356 20.625 31.1029 20.625 29.9219V21.0156C20.625 19.8346 21.0942 18.7019 21.9293 17.8668C22.7644 17.0317 23.8971 16.5625 25.0781 16.5625C26.2592 16.5625 27.3918 17.0317 28.227 17.8668C29.0621 18.7019 29.5312 19.8346 29.5312 21.0156V29.9219C29.5312 31.1029 29.0621 32.2356 28.227 33.0707C27.3918 33.9058 26.2592 34.375 25.0781 34.375ZM25.0781 17.75C24.2125 17.7516 23.3828 18.0961 22.7707 18.7082C22.1586 19.3203 21.8141 20.15 21.8125 21.0156V29.9219C21.8125 30.788 22.1566 31.6186 22.769 32.231C23.3814 32.8434 24.212 33.1875 25.0781 33.1875C25.9442 33.1875 26.7748 32.8434 27.3873 32.231C27.9997 31.6186 28.3438 30.788 28.3438 29.9219V21.0156C28.3422 20.15 27.9976 19.3203 27.3855 18.7082C26.7735 18.0961 25.9437 17.7516 25.0781 17.75Z" fill="#007472"/>
<path d="M25.0899 39.125C24.7607 39.1248 24.4317 39.107 24.1043 39.0716C21.9753 38.8084 20.0185 37.7683 18.6093 36.1509C17.2001 34.5336 16.4378 32.4528 16.4687 30.3078V26.6562C16.4687 26.4988 16.5312 26.3478 16.6426 26.2364C16.7539 26.1251 16.905 26.0625 17.0624 26.0625H18.8437C19.0011 26.0625 19.1522 26.1251 19.2635 26.2364C19.3749 26.3478 19.4374 26.4988 19.4374 26.6562V29.9219C19.4375 30.7417 19.6161 31.5517 19.9609 32.2955C20.3056 33.0393 20.8082 33.6992 21.4337 34.2292C22.0592 34.7592 22.7925 35.1466 23.5829 35.3645C24.3732 35.5825 25.2015 35.6257 26.0102 35.4913C27.3452 35.2412 28.5492 34.5284 29.4104 33.4782C30.2716 32.428 30.7349 31.1078 30.7187 29.7497V26.6562C30.7187 26.4988 30.7812 26.3478 30.8926 26.2364C31.0039 26.1251 31.155 26.0625 31.3124 26.0625H33.0937C33.2511 26.0625 33.4022 26.1251 33.5135 26.2364C33.6249 26.3478 33.6874 26.4988 33.6874 26.6562V30.5156C33.6867 31.726 33.4309 32.9226 32.9368 34.0274C32.4426 35.1323 31.7212 36.1207 30.8196 36.9281C29.2507 38.3496 27.207 39.1332 25.0899 39.125ZM17.6562 27.25V30.3078C17.6255 32.1593 18.2792 33.957 19.4922 35.3562C20.7051 36.7554 22.3919 37.6577 24.229 37.89C25.2718 38.016 26.3294 37.9163 27.3303 37.5977C28.3312 37.2791 29.2519 36.749 30.0299 36.0434C30.8061 35.3467 31.4272 34.4945 31.8527 33.5422C32.2782 32.5898 32.4987 31.5587 32.4999 30.5156V27.25H31.9062V29.7497C31.9203 31.3898 31.3552 32.9824 30.3103 34.2467C29.2654 35.511 27.8078 36.366 26.1943 36.6609C25.2164 36.8219 24.2152 36.7684 23.2601 36.5039C22.305 36.2394 21.4189 35.7703 20.6631 35.1292C19.9074 34.4881 19.3001 33.6903 18.8834 32.7912C18.4667 31.892 18.2505 30.9129 18.2499 29.9219V27.25H17.6562Z" fill="#007472"/>
<path d="M25.9688 45.0625H24.1875C24.03 45.0625 23.879 44.9999 23.7677 44.8886C23.6563 44.7772 23.5938 44.6262 23.5938 44.4687V38.4778C23.5933 38.394 23.6105 38.3111 23.6443 38.2344C23.6782 38.1578 23.7278 38.0891 23.7901 38.033C23.8523 37.977 23.9257 37.9347 24.0055 37.909C24.0853 37.8833 24.1695 37.8748 24.2528 37.884C24.8011 37.9494 25.3552 37.9494 25.9034 37.884C25.9867 37.8748 26.071 37.8833 26.1508 37.909C26.2305 37.9347 26.3039 37.977 26.3662 38.033C26.4284 38.0891 26.4781 38.1578 26.512 38.2344C26.5458 38.3111 26.563 38.394 26.5625 38.4778V44.4687C26.5625 44.6262 26.5 44.7772 26.3886 44.8886C26.2773 44.9999 26.1262 45.0625 25.9688 45.0625ZM24.7813 43.875H25.375V39.125H24.7813V43.875Z" fill="#007472"/>
<path d="M30.7188 47.4375H19.4375C19.28 47.4375 19.129 47.3749 19.0177 47.2636C18.9063 47.1522 18.8438 47.0012 18.8438 46.8437C18.8438 46.0564 19.1565 45.3013 19.7133 44.7445C20.27 44.1878 21.0251 43.875 21.8125 43.875H28.3438C29.1311 43.875 29.8862 44.1878 30.443 44.7445C30.9997 45.3013 31.3125 46.0564 31.3125 46.8437C31.3125 47.0012 31.2499 47.1522 31.1386 47.2636C31.0272 47.3749 30.8762 47.4375 30.7188 47.4375ZM20.1322 46.25H30.0241C29.9012 45.9025 29.6737 45.6018 29.3727 45.3891C29.0718 45.1764 28.7123 45.0623 28.3438 45.0625H21.8125C21.444 45.0623 21.0845 45.1764 20.7835 45.3891C20.4826 45.6018 20.255 45.9025 20.1322 46.25ZM36.3475 27.44C36.129 27.4402 35.9135 27.3894 35.7181 27.2915C35.4465 27.1612 35.2264 26.9435 35.0929 26.6734C34.9594 26.4033 34.9204 26.0962 34.9819 25.8012C35.0826 25.3013 35.1186 24.7904 35.0888 24.2812H34.3466C33.8661 24.2876 33.4026 24.1041 33.0568 23.7705C32.711 23.4369 32.5109 22.9803 32.5 22.5V18.3437C32.5109 17.8634 32.711 17.4068 33.0568 17.0732C33.4026 16.7396 33.8661 16.5561 34.3466 16.5625H46.6847C47.1651 16.5561 47.6286 16.7396 47.9744 17.0732C48.3202 17.4068 48.5203 17.8634 48.5312 18.3437V22.5C48.5203 22.9803 48.3202 23.4369 47.9744 23.7705C47.6286 24.1041 47.1651 24.2876 46.6847 24.2812H38.5622C38.4763 24.9443 38.2754 25.5872 37.9684 26.1812C37.8134 26.4603 37.6303 26.7229 37.4222 26.965C37.2876 27.1166 37.122 27.2375 36.9366 27.3195C36.7511 27.4014 36.5502 27.4425 36.3475 27.44ZM34.3466 17.75C34.181 17.7434 34.0194 17.8019 33.8962 17.9128C33.7731 18.0237 33.6982 18.1784 33.6875 18.3437V22.5C33.6982 22.6654 33.7731 22.82 33.8962 22.9309C34.0194 23.0418 34.181 23.1003 34.3466 23.0937H35.6231C35.7672 23.0923 35.9069 23.1433 36.0161 23.2373C36.1254 23.3312 36.1967 23.4617 36.2169 23.6044C36.3311 24.4036 36.3111 25.2164 36.1575 26.009C36.1489 26.0297 36.1445 26.0518 36.1447 26.0741C36.1448 26.0965 36.1495 26.1186 36.1583 26.1391C36.1672 26.1596 36.1801 26.1781 36.1963 26.1935C36.2125 26.2089 36.2316 26.2209 36.2525 26.2287C36.2951 26.2531 36.3451 26.2611 36.3932 26.2513C36.4413 26.2414 36.4841 26.2144 36.5137 26.1753C36.6665 25.9917 36.7998 25.7927 36.9116 25.5815C37.226 24.9759 37.4062 24.3096 37.44 23.6281C37.4491 23.4769 37.5156 23.3349 37.626 23.2311C37.7364 23.1273 37.8823 23.0697 38.0338 23.07H46.6847C46.8465 23.0769 47.0048 23.0217 47.1273 22.9158C47.2498 22.8098 47.3272 22.6611 47.3438 22.5V18.3437C47.333 18.1784 47.2581 18.0237 47.135 17.9128C47.0119 17.8019 46.8503 17.7434 46.6847 17.75H34.3466Z" fill="#007472"/>
<path d="M36.3594 21.9063C36.0658 21.9063 35.7788 21.8192 35.5347 21.6561C35.2906 21.493 35.1003 21.2612 34.988 20.9899C34.8756 20.7187 34.8462 20.4202 34.9035 20.1323C34.9608 19.8443 35.1022 19.5799 35.3098 19.3723C35.5174 19.1647 35.7818 19.0233 36.0698 18.966C36.3577 18.9087 36.6562 18.9381 36.9274 19.0505C37.1987 19.1628 37.4305 19.3531 37.5936 19.5972C37.7567 19.8413 37.8438 20.1283 37.8438 20.4219C37.8438 20.6168 37.8054 20.8098 37.7308 20.9899C37.6562 21.17 37.5468 21.3337 37.409 21.4715C37.2712 21.6093 37.1075 21.7187 36.9274 21.7933C36.7473 21.8679 36.5543 21.9063 36.3594 21.9063ZM36.3594 20.125C36.3007 20.125 36.2433 20.1424 36.1944 20.175C36.1456 20.2077 36.1076 20.254 36.0851 20.3083C36.0626 20.3625 36.0568 20.4222 36.0682 20.4798C36.0797 20.5374 36.1079 20.5903 36.1495 20.6318C36.191 20.6733 36.2439 20.7016 36.3015 20.713C36.359 20.7245 36.4187 20.7186 36.473 20.6962C36.5272 20.6737 36.5736 20.6356 36.6062 20.5868C36.6388 20.538 36.6563 20.4806 36.6563 20.4219C36.6563 20.3431 36.625 20.2676 36.5693 20.212C36.5136 20.1563 36.4381 20.125 36.3594 20.125ZM40.5156 21.9063C40.222 21.9063 39.9351 21.8192 39.6909 21.6561C39.4468 21.493 39.2566 21.2612 39.1442 20.9899C39.0319 20.7187 39.0025 20.4202 39.0598 20.1323C39.117 19.8443 39.2584 19.5799 39.466 19.3723C39.6736 19.1647 39.9381 19.0233 40.226 18.966C40.514 18.9087 40.8124 18.9381 41.0837 19.0505C41.3549 19.1628 41.5867 19.3531 41.7498 19.5972C41.9129 19.8413 42 20.1283 42 20.4219C42 20.6168 41.9616 20.8098 41.887 20.9899C41.8124 21.17 41.7031 21.3337 41.5652 21.4715C41.4274 21.6093 41.2638 21.7187 41.0837 21.7933C40.9036 21.8679 40.7106 21.9063 40.5156 21.9063ZM40.5156 20.125C40.4569 20.125 40.3995 20.1424 40.3507 20.175C40.3019 20.2077 40.2638 20.254 40.2413 20.3083C40.2189 20.3625 40.213 20.4222 40.2245 20.4798C40.2359 20.5374 40.2642 20.5903 40.3057 20.6318C40.3472 20.6733 40.4001 20.7016 40.4577 20.713C40.5153 20.7245 40.575 20.7186 40.6292 20.6962C40.6835 20.6737 40.7298 20.6356 40.7625 20.5868C40.7951 20.538 40.8125 20.4806 40.8125 20.4219C40.8125 20.3431 40.7812 20.2676 40.7255 20.212C40.6699 20.1563 40.5944 20.125 40.5156 20.125ZM44.6719 21.9063C44.3783 21.9063 44.0913 21.8192 43.8472 21.6561C43.6031 21.493 43.4128 21.2612 43.3005 20.9899C43.1881 20.7187 43.1587 20.4202 43.216 20.1323C43.2733 19.8443 43.4147 19.5799 43.6223 19.3723C43.8299 19.1647 44.0943 19.0233 44.3823 18.966C44.6702 18.9087 44.9687 18.9381 45.2399 19.0505C45.5112 19.1628 45.743 19.3531 45.9061 19.5972C46.0692 19.8413 46.1562 20.1283 46.1562 20.4219C46.1562 20.8156 45.9999 21.1931 45.7215 21.4715C45.4431 21.7499 45.0656 21.9063 44.6719 21.9063ZM44.6719 20.125C44.6132 20.125 44.5558 20.1424 44.5069 20.175C44.4581 20.2077 44.4201 20.254 44.3976 20.3083C44.3751 20.3625 44.3693 20.4222 44.3807 20.4798C44.3922 20.5374 44.4204 20.5903 44.462 20.6318C44.5035 20.6733 44.5564 20.7016 44.614 20.713C44.6715 20.7245 44.7312 20.7186 44.7855 20.6962C44.8397 20.6737 44.8861 20.6356 44.9187 20.5868C44.9513 20.538 44.9688 20.4806 44.9688 20.4219C44.9688 20.3431 44.9375 20.2676 44.8818 20.212C44.8261 20.1563 44.7506 20.125 44.6719 20.125Z" fill="#007472"/>
</svg>
