<svg width="65" height="64" viewBox="0 0 65 64" fill="none" xmlns="http://www.w3.org/2000/svg">
<rect x="0.5" width="64" height="64" rx="10" fill="#F1FAFF"/>
<g clip-path="url(#clip0_72_399)">
<path d="M32.5 13C22.015 13 13.5 21.515 13.5 32C13.5 42.485 22.015 51 32.5 51C42.985 51 51.5 42.485 51.5 32C51.5 21.515 42.985 13 32.5 13ZM32.5 14.4729C34.8024 14.4705 37.0826 14.9222 39.2102 15.8022C41.3377 16.6821 43.2709 17.9731 44.8989 19.6011C46.5269 21.2291 47.8179 23.1623 48.6978 25.2898C49.5778 27.4174 50.0295 29.6976 50.0271 32C50.0295 34.3024 49.5778 36.5826 48.6978 38.7102C47.8179 40.8377 46.5269 42.7709 44.8989 44.3989C43.2709 46.0269 41.3377 47.3179 39.2102 48.1978C37.0826 49.0778 34.8024 49.5295 32.5 49.5271C30.1976 49.5295 27.9174 49.0778 25.7898 48.1978C23.6623 47.3179 21.7291 46.0269 20.1011 44.3989C18.4731 42.7709 17.1821 40.8377 16.3022 38.7102C15.4222 36.5826 14.9705 34.3024 14.9729 32C14.9705 29.6976 15.4222 27.4174 16.3022 25.2898C17.1821 23.1623 18.4731 21.2291 20.1011 19.6011C21.7291 17.9731 23.6623 16.6821 25.7898 15.8022C27.9174 14.9222 30.1976 14.4705 32.5 14.4729ZM24.14 20.6C23.2432 20.6 22.471 20.8356 21.9071 21.4071C21.3447 21.9802 21.1 22.8192 21.1 23.7358V37.6529L28.3671 44.92H42.38C43.2662 44.92 44.052 44.6768 44.6129 44.1129C45.1722 43.549 45.42 42.7753 45.42 41.88V23.5929C45.42 22.7265 45.1707 21.9574 44.6129 21.4071C44.055 20.8584 43.2616 20.6 42.38 20.6H24.14ZM24.14 22.12H25.66V29.72H40.86V22.12H42.38C43.0078 22.12 43.368 22.2568 43.5671 22.4529C43.7678 22.6505 43.9 22.9879 43.9 23.5929V41.88C43.9 42.5275 43.7678 42.865 43.5671 43.0671C43.3665 43.2693 43.0138 43.4 42.38 43.4H40.86V34.28H25.6129V40.0271L22.62 36.9871V23.7342C22.62 23.0609 22.7507 22.7052 22.9529 22.5C23.155 22.2948 23.4925 22.12 24.14 22.12ZM27.18 22.12H39.34V25.16H27.18V22.12ZM27.18 26.68H39.34V28.2H27.18V26.68ZM27.18 35.8H39.34V43.4H29.0329L27.18 41.5471V35.8ZM28.7 37.32V41.88H30.22V37.32H28.7ZM31.74 37.32V38.84H37.82V37.32H31.74ZM31.74 40.36V41.88H37.82V40.36H31.74Z" fill="#007472"/>
</g>
<defs>
<clipPath id="clip0_72_399">
<rect width="38" height="38" fill="white" transform="translate(13.5 13)"/>
</clipPath>
</defs>
</svg>
