<svg width="65" height="64" viewBox="0 0 65 64" fill="none" xmlns="http://www.w3.org/2000/svg">
<rect x="0.5" width="64" height="64" rx="10" fill="#F1FAFF"/>
<path d="M49.125 24.2812H47.3438V22.5C47.3438 22.1723 47.0783 21.9062 46.75 21.9062H34.2812C33.5682 21.9062 32.9358 22.2281 32.5 22.7268C32.0642 22.2281 31.4318 21.9062 30.7188 21.9062H18.25C17.9217 21.9062 17.6562 22.1723 17.6562 22.5V24.2812H15.875C15.5467 24.2812 15.2812 24.5473 15.2812 24.875V46.25C15.2812 46.5777 15.5467 46.8438 15.875 46.8438H35.4688V48.625C35.4688 48.831 35.5756 49.0216 35.7508 49.1303C35.9259 49.2389 36.1433 49.2478 36.3285 49.1564L37.25 48.6951L38.1721 49.1558C38.2558 49.198 38.3467 49.2188 38.4375 49.2188C38.5462 49.2188 38.6542 49.1891 38.7492 49.1303C38.9244 49.0216 39.0312 48.831 39.0312 48.625V46.8438H49.125C49.4533 46.8438 49.7188 46.5777 49.7188 46.25V24.875C49.7188 24.5473 49.4533 24.2812 49.125 24.2812ZM46.1562 43.2812H39.0312V23.0938H46.1562V43.2812ZM34.2812 23.0938H35.4688V43.2812H34.2812C33.6263 43.2812 33.0938 42.7487 33.0938 42.0938V24.2812C33.0938 23.6263 33.6263 23.0938 34.2812 23.0938ZM18.8438 23.0938H30.7188C31.3737 23.0938 31.9062 23.6263 31.9062 24.2812V42.0938C31.9062 42.7487 31.3737 43.2812 30.7188 43.2812H18.8438V23.0938ZM16.4688 45.6562V25.4688H17.6562V43.875C17.6562 44.2027 17.9217 44.4688 18.25 44.4688H30.7188C31.4318 44.4688 32.0642 44.1469 32.5 43.6482C32.9358 44.1469 33.5682 44.4688 34.2812 44.4688H35.4688V45.6562H16.4688ZM37.8438 47.6643L37.5154 47.5004C37.3486 47.4167 37.1514 47.4167 36.984 47.5004L36.6562 47.6643V23.0938H37.8438V47.6643ZM48.5312 45.6562H39.0312V44.4688H46.75C47.0783 44.4688 47.3438 44.2027 47.3438 43.875V25.4688H48.5312V45.6562Z" fill="#007472"/>
<path d="M20.625 26.6562H30.125C30.4533 26.6562 30.7188 26.3903 30.7188 26.0625C30.7188 25.7347 30.4533 25.4688 30.125 25.4688H20.625C20.2967 25.4688 20.0312 25.7347 20.0312 26.0625C20.0312 26.3903 20.2967 26.6562 20.625 26.6562ZM20.625 30.2188H26.5625C26.8908 30.2188 27.1562 29.9528 27.1562 29.625C27.1562 29.2972 26.8908 29.0312 26.5625 29.0312H20.625C20.2967 29.0312 20.0312 29.2972 20.0312 29.625C20.0312 29.9528 20.2967 30.2188 20.625 30.2188ZM30.125 29.0312H28.3438C28.0154 29.0312 27.75 29.2972 27.75 29.625C27.75 29.9528 28.0154 30.2188 28.3438 30.2188H30.125C30.4533 30.2188 30.7188 29.9528 30.7188 29.625C30.7188 29.2972 30.4533 29.0312 30.125 29.0312ZM30.125 36.1562H24.1875C23.8592 36.1562 23.5938 36.4223 23.5938 36.75C23.5938 37.0777 23.8592 37.3438 24.1875 37.3438H30.125C30.4533 37.3438 30.7188 37.0777 30.7188 36.75C30.7188 36.4223 30.4533 36.1562 30.125 36.1562ZM20.625 37.3438H22.4062C22.7346 37.3438 23 37.0777 23 36.75C23 36.4223 22.7346 36.1562 22.4062 36.1562H20.625C20.2967 36.1562 20.0312 36.4223 20.0312 36.75C20.0312 37.0777 20.2967 37.3438 20.625 37.3438ZM20.625 33.7812H30.125C30.4533 33.7812 30.7188 33.5152 30.7188 33.1875C30.7188 32.8598 30.4533 32.5938 30.125 32.5938H20.625C20.2967 32.5938 20.0312 32.8598 20.0312 33.1875C20.0312 33.5152 20.2967 33.7812 20.625 33.7812ZM20.625 40.9062H30.125C30.4533 40.9062 30.7188 40.6402 30.7188 40.3125C30.7188 39.9848 30.4533 39.7188 30.125 39.7188H20.625C20.2967 39.7188 20.0312 39.9848 20.0312 40.3125C20.0312 40.6402 20.2967 40.9062 20.625 40.9062ZM20.0312 19.5312H43.7812C43.8893 19.5312 43.9944 19.5022 44.087 19.4463L47.0558 17.6651C47.2339 17.5582 47.3438 17.3647 47.3438 17.1562C47.3438 16.9478 47.2339 16.7543 47.0558 16.6474L44.087 14.8662C43.9944 14.8103 43.8893 14.7812 43.7812 14.7812H20.0312C18.7214 14.7812 17.6562 15.8464 17.6562 17.1562C17.6562 18.4661 18.7214 19.5312 20.0312 19.5312ZM45.5963 17.1562L43.6168 18.3438H22.4062V15.9688H43.6168L45.5963 17.1562ZM20.0312 15.9688H21.2188V18.3438H20.0312C19.3763 18.3438 18.8438 17.8112 18.8438 17.1562C18.8438 16.5013 19.3763 15.9688 20.0312 15.9688Z" fill="#007472"/>
</svg>
