<svg width="41" height="40" viewBox="0 0 41 40" fill="none" xmlns="http://www.w3.org/2000/svg">
<rect x="0.899414" width="40" height="40" rx="9" fill="white"/>
<path d="M24.5661 14.5002V13.7668C24.5661 12.7401 24.5661 12.2267 24.3663 11.8345C24.1905 11.4895 23.91 11.2091 23.5651 11.0333C23.1729 10.8335 22.6595 10.8335 21.6327 10.8335H20.1661C19.1393 10.8335 18.6259 10.8335 18.2338 11.0333C17.8888 11.2091 17.6083 11.4895 17.4326 11.8345C17.2327 12.2267 17.2327 12.7401 17.2327 13.7668V14.5002M19.0661 19.5418V24.1252M22.7327 19.5418V24.1252M12.6494 14.5002H29.1494M27.3161 14.5002V24.7668C27.3161 26.307 27.3161 27.077 27.0163 27.6653C26.7527 28.1827 26.332 28.6034 25.8146 28.8671C25.2263 29.1668 24.4562 29.1668 22.9161 29.1668H18.8827C17.3426 29.1668 16.5725 29.1668 15.9843 28.8671C15.4668 28.6034 15.0461 28.1827 14.7825 27.6653C14.4827 27.077 14.4827 26.307 14.4827 24.7668V14.5002" stroke="#E54335" stroke-width="2" stroke-linecap="round" stroke-linejoin="round"/>
</svg>
