<svg width="32" height="32" viewBox="0 0 32 32" fill="none" xmlns="http://www.w3.org/2000/svg">
<g id="twitter (2) 1">
<path id="Vector" d="M27.4321 9.4452C26.7096 9.78068 25.8838 9.98713 25.1096 10.1162C25.4967 10.0646 26.0386 9.36778 26.2709 9.10971C26.6063 8.69681 26.8902 8.20649 27.045 7.69036C27.0709 7.63874 27.0709 7.58713 27.045 7.56133C26.9934 7.53552 26.9676 7.56133 26.916 7.56133C26.0386 8.02584 25.1354 8.38713 24.1547 8.61939C24.0773 8.6452 24.0257 8.61939 23.9741 8.56778C23.8967 8.46455 23.8192 8.38713 23.7418 8.30971C23.3289 7.97423 22.8902 7.69036 22.3999 7.48391C21.7547 7.22584 21.0321 7.09681 20.3354 7.14842C19.6644 7.20004 18.9934 7.38068 18.3999 7.69036C17.8063 8.00003 17.2644 8.43874 16.8257 8.98068C16.387 9.52262 16.0515 10.1678 15.8967 10.8646C15.7418 11.5355 15.7418 12.1807 15.845 12.8516C15.8709 12.9549 15.845 12.9807 15.7418 12.9549C11.9225 12.4129 8.77407 11.071 6.21923 8.15487C6.11601 8.02584 6.03859 8.02584 5.96117 8.15487C4.85149 9.83229 5.39343 12.5162 6.78698 13.8581C6.96762 14.0387 7.17407 14.2194 7.38052 14.3742C7.30311 14.4 6.37407 14.2968 5.54827 13.8581C5.44504 13.7807 5.39343 13.8323 5.36762 13.9613C5.36762 14.142 5.36762 14.2968 5.39343 14.5033C5.59988 16.2065 6.78698 17.7807 8.38698 18.3742C8.56762 18.4516 8.79988 18.5291 9.00633 18.5549C8.64504 18.6323 8.25794 18.6839 7.19988 18.6065C7.07085 18.5807 7.01923 18.6581 7.07085 18.7613C7.84504 20.9291 9.54827 21.5742 10.8386 21.9355C11.0192 21.9613 11.1741 21.9613 11.3547 22.0129C11.3547 22.0387 11.3289 22.0387 11.3289 22.0387C10.916 22.6839 9.44504 23.1742 8.74827 23.4065C7.50956 23.8452 6.14181 24.0258 4.82569 23.8968C4.61923 23.871 4.56762 23.871 4.51601 23.8968C4.46439 23.9226 4.51601 23.9742 4.56762 24.0258C4.82569 24.2065 5.10956 24.3613 5.39343 24.5162C6.21923 24.9549 7.09665 25.3162 7.99988 25.5742C12.6967 26.8646 18.0128 25.9097 21.5483 22.4C24.3096 19.6646 25.2902 15.871 25.2902 12.0516C25.2902 11.8968 25.4709 11.8194 25.5741 11.742C26.2967 11.2 26.8644 10.5549 27.4063 9.83229C27.5354 9.67745 27.5096 9.52262 27.5096 9.471V9.4452C27.5096 9.39358 27.5354 9.39358 27.4321 9.4452Z" fill="white"/>
<path id="Vector_2" fill-rule="evenodd" clip-rule="evenodd" d="M11.329 26.0645C11.4065 26.0645 13.2645 26.0645 11.329 26.0645C11.3032 26.0645 11.5871 26.0645 11.329 26.0645ZM11.329 26.0645C10.9419 26.0645 11.3032 26.0645 11.329 26.0645V26.0645ZM12.1032 26.0903C12.1032 26.0387 12.5161 26.0903 12.1032 26.0903C12.1032 26.0645 12.1549 26.0903 12.1032 26.0903ZM20.2581 7.19995C20.2323 7.22576 20.2065 7.22576 20.1549 7.19995C20.1807 7.19995 20.2323 7.19995 20.2581 7.19995Z" fill="white"/>
</g>
</svg>
