<svg width="41" height="40" viewBox="0 0 41 40" fill="none" xmlns="http://www.w3.org/2000/svg">
<rect x="0.899414" width="40" height="40" rx="9" fill="#007472"/>
<g clip-path="url(#clip0_11_1024)">
<path d="M20.8991 17.2502C20.5329 17.2419 20.1687 17.3069 19.8279 17.4413C19.4872 17.5757 19.1767 17.7768 18.9147 18.0329C18.6528 18.2889 18.4446 18.5947 18.3024 18.9323C18.1603 19.2699 18.087 19.6325 18.0869 19.9988C18.0868 20.3651 18.1599 20.7278 18.3019 21.0654C18.4439 21.4031 18.6519 21.709 18.9137 21.9652C19.1756 22.2214 19.486 22.4226 19.8266 22.5572C20.1673 22.6918 20.5315 22.7569 20.8977 22.7488C21.6162 22.733 22.3 22.4364 22.8026 21.9227C23.3052 21.409 23.5867 20.7189 23.5869 20.0002C23.5871 19.2815 23.3059 18.5913 22.8036 18.0773C22.3012 17.5633 21.6176 17.2665 20.8991 17.2502Z" fill="white"/>
<path d="M20.8994 15.1875C25.2004 15.1875 27.9422 17.8577 29.4492 20C27.9422 22.1423 25.2004 24.8125 20.8994 24.8125C16.5984 24.8125 13.8567 22.1423 12.3497 20C13.8567 17.8577 16.5984 15.1875 20.8994 15.1875ZM20.8994 13.125C15.9632 13.125 12.2067 16.0579 9.89941 20C12.2067 23.9421 15.9632 26.875 20.8994 26.875C25.8357 26.875 29.5922 23.9421 31.8994 20C29.5922 16.0579 25.8343 13.125 20.8994 13.125Z" fill="white"/>
</g>
<defs>
<clipPath id="clip0_11_1024">
<rect width="22" height="22" fill="white" transform="translate(9.89941 9)"/>
</clipPath>
</defs>
</svg>
